<svg xmlns="http://www.w3.org/2000/svg" xmlns:xlink="http://www.w3.org/1999/xlink" version="1.1" width="256" height="256" viewBox="0 0 256 256" xml:space="preserve">
<g style="stroke: none; stroke-width: 0; stroke-dasharray: none; stroke-linecap: butt; stroke-linejoin: miter; stroke-miterlimit: 10; fill: none; fill-rule: nonzero; opacity: 1;" transform="translate(1.4065934065934016 1.4065934065934016) scale(2.81 2.81)">
	<path d="M 23 30.683 L 23 30.683 c -3.368 0 -6.098 -2.73 -6.098 -6.098 v -3.698 c 0 -3.368 2.73 -6.098 6.098 -6.098 h 0 c 3.368 0 6.098 2.73 6.098 6.098 v 3.698 C 29.098 27.953 26.368 30.683 23 30.683 z" style="stroke: none; stroke-width: 1; stroke-dasharray: none; stroke-linecap: butt; stroke-linejoin: miter; stroke-miterlimit: 10; fill: rgb(254,229,198); fill-rule: nonzero; opacity: 1;" transform=" matrix(1 0 0 1 0 0) " stroke-linecap="round"/>
	<path d="M 45 30.683 L 45 30.683 c -3.368 0 -6.098 -2.73 -6.098 -6.098 v -3.698 c 0 -3.368 2.73 -6.098 6.098 -6.098 h 0 c 3.368 0 6.098 2.73 6.098 6.098 v 3.698 C 51.098 27.953 48.368 30.683 45 30.683 z" style="stroke: none; stroke-width: 1; stroke-dasharray: none; stroke-linecap: butt; stroke-linejoin: miter; stroke-miterlimit: 10; fill: rgb(254,229,198); fill-rule: nonzero; opacity: 1;" transform=" matrix(1 0 0 1 0 0) " stroke-linecap="round"/>
	<path d="M 67 30.683 L 67 30.683 c -3.368 0 -6.098 -2.73 -6.098 -6.098 v -3.698 c 0 -3.368 2.73 -6.098 6.098 -6.098 h 0 c 3.368 0 6.098 2.73 6.098 6.098 v 3.698 C 73.098 27.953 70.368 30.683 67 30.683 z" style="stroke: none; stroke-width: 1; stroke-dasharray: none; stroke-linecap: butt; stroke-linejoin: miter; stroke-miterlimit: 10; fill: rgb(254,229,198); fill-rule: nonzero; opacity: 1;" transform=" matrix(1 0 0 1 0 0) " stroke-linecap="round"/>
	<path d="M 56 38.694 c 0 -4.424 -3.587 -8.011 -8.011 -8.011 h -5.978 c -4.424 0 -8.011 3.587 -8.011 8.011 v 25.907 h 22 L 56 38.694 z" style="stroke: none; stroke-width: 1; stroke-dasharray: none; stroke-linecap: butt; stroke-linejoin: miter; stroke-miterlimit: 10; fill: rgb(128,170,255); fill-rule: nonzero; opacity: 1;" transform=" matrix(1 0 0 1 0 0) " stroke-linecap="round"/>
	<path d="M 78 64.601 V 38.694 c 0 -4.424 -3.587 -8.011 -8.011 -8.011 h -5.978 c -4.424 0 -8.011 3.587 -8.011 8.011 v 25.907" style="stroke: none; stroke-width: 1; stroke-dasharray: none; stroke-linecap: butt; stroke-linejoin: miter; stroke-miterlimit: 10; fill: rgb(194,173,255); fill-rule: nonzero; opacity: 1;" transform=" matrix(1 0 0 1 0 0) " stroke-linecap="round"/>
	<path d="M 25.989 30.683 h -5.978 c -4.424 0 -8.011 3.587 -8.011 8.011 v 25.907 h 22 V 38.694 C 34 34.269 30.413 30.683 25.989 30.683 z" style="stroke: none; stroke-width: 1; stroke-dasharray: none; stroke-linecap: butt; stroke-linejoin: miter; stroke-miterlimit: 10; fill: rgb(189,246,147); fill-rule: nonzero; opacity: 1;" transform=" matrix(1 0 0 1 0 0) " stroke-linecap="round"/>
	<path d="M 34 56.494 L 34 56.494 c -3.368 0 -6.098 -2.73 -6.098 -6.098 v -3.698 c 0 -3.368 2.73 -6.098 6.098 -6.098 h 0 c 3.368 0 6.098 2.73 6.098 6.098 v 3.698 C 40.098 53.764 37.368 56.494 34 56.494 z" style="stroke: none; stroke-width: 1; stroke-dasharray: none; stroke-linecap: butt; stroke-linejoin: miter; stroke-miterlimit: 10; fill: rgb(254,229,198); fill-rule: nonzero; opacity: 1;" transform=" matrix(1 0 0 1 0 0) " stroke-linecap="round"/>
	<path d="M 56 56.494 L 56 56.494 c -3.368 0 -6.098 -2.73 -6.098 -6.098 v -3.698 c 0 -3.368 2.73 -6.098 6.098 -6.098 h 0 c 3.368 0 6.098 2.73 6.098 6.098 v 3.698 C 62.098 53.764 59.368 56.494 56 56.494 z" style="stroke: none; stroke-width: 1; stroke-dasharray: none; stroke-linecap: butt; stroke-linejoin: miter; stroke-miterlimit: 10; fill: rgb(254,229,198); fill-rule: nonzero; opacity: 1;" transform=" matrix(1 0 0 1 0 0) " stroke-linecap="round"/>
	<path d="M 78 56.494 L 78 56.494 c -3.368 0 -6.098 -2.73 -6.098 -6.098 v -3.698 c 0 -3.368 2.73 -6.098 6.098 -6.098 h 0 c 3.368 0 6.098 2.73 6.098 6.098 v 3.698 C 84.098 53.764 81.368 56.494 78 56.494 z" style="stroke: none; stroke-width: 1; stroke-dasharray: none; stroke-linecap: butt; stroke-linejoin: miter; stroke-miterlimit: 10; fill: rgb(254,229,198); fill-rule: nonzero; opacity: 1;" transform=" matrix(1 0 0 1 0 0) " stroke-linecap="round"/>
	<path d="M 12 56.494 L 12 56.494 c 3.368 0 6.098 -2.73 6.098 -6.098 v -3.698 c 0 -3.368 -2.73 -6.098 -6.098 -6.098 h 0 c -3.368 0 -6.098 2.73 -6.098 6.098 v 3.698 C 5.902 53.764 8.632 56.494 12 56.494 z" style="stroke: none; stroke-width: 1; stroke-dasharray: none; stroke-linecap: butt; stroke-linejoin: miter; stroke-miterlimit: 10; fill: rgb(254,229,198); fill-rule: nonzero; opacity: 1;" transform=" matrix(1 0 0 1 0 0) " stroke-linecap="round"/>
	<path d="M 45 64.505 c 0 -4.424 -3.587 -8.011 -8.011 -8.011 h -5.978 c -4.424 0 -8.011 3.587 -8.011 8.011 v 1.284 v 9.422 h 22 V 64.505 z" style="stroke: none; stroke-width: 1; stroke-dasharray: none; stroke-linecap: butt; stroke-linejoin: miter; stroke-miterlimit: 10; fill: rgb(255,231,115); fill-rule: nonzero; opacity: 1;" transform=" matrix(1 0 0 1 0 0) " stroke-linecap="round"/>
	<path d="M 67 65.789 v -1.284 c 0 -4.424 -3.587 -8.011 -8.011 -8.011 h -5.978 c -4.424 0 -8.011 3.587 -8.011 8.011 v 1.284 v 9.422 h 22 V 65.789 z" style="stroke: none; stroke-width: 1; stroke-dasharray: none; stroke-linecap: butt; stroke-linejoin: miter; stroke-miterlimit: 10; fill: rgb(254,79,96); fill-rule: nonzero; opacity: 1;" transform=" matrix(1 0 0 1 0 0) " stroke-linecap="round"/>
	<path d="M 67 65.789 v -1.284 c 0 -4.424 3.587 -8.011 8.011 -8.011 h 5.978 c 4.424 0 8.011 3.587 8.011 8.011 v 10.706 H 67 V 65.789 z" style="stroke: none; stroke-width: 1; stroke-dasharray: none; stroke-linecap: butt; stroke-linejoin: miter; stroke-miterlimit: 10; fill: rgb(189,246,147); fill-rule: nonzero; opacity: 1;" transform=" matrix(1 0 0 1 0 0) " stroke-linecap="round"/>
	<path d="M 23 64.505 c 0 -4.424 -3.587 -8.011 -8.011 -8.011 H 9.011 C 4.587 56.494 1 60.081 1 64.505 v 10.706 h 22 V 64.505" style="stroke: none; stroke-width: 1; stroke-dasharray: none; stroke-linecap: butt; stroke-linejoin: miter; stroke-miterlimit: 10; fill: rgb(128,170,255); fill-rule: nonzero; opacity: 1;" transform=" matrix(1 0 0 1 0 0) " stroke-linecap="round"/>
	<path d="M 45 76.211 H 23 c -0.552 0 -1 -0.447 -1 -1 V 64.505 c 0 -4.969 4.042 -9.011 9.011 -9.011 h 5.979 c 4.969 0 9.011 4.042 9.011 9.011 v 10.706 C 46 75.764 45.552 76.211 45 76.211 z M 24 74.211 h 20 v -9.706 c 0 -3.866 -3.145 -7.011 -7.011 -7.011 h -5.979 c -3.866 0 -7.011 3.145 -7.011 7.011 V 74.211 z" style="stroke: none; stroke-width: 1; stroke-dasharray: none; stroke-linecap: butt; stroke-linejoin: miter; stroke-miterlimit: 10; fill: rgb(0,0,0); fill-rule: nonzero; opacity: 1;" transform=" matrix(1 0 0 1 0 0) " stroke-linecap="round"/>
	<path d="M 67 76.211 H 45 c -0.552 0 -1 -0.447 -1 -1 V 64.505 c 0 -4.969 4.042 -9.011 9.011 -9.011 h 5.979 c 4.969 0 9.011 4.042 9.011 9.011 v 10.706 C 68 75.764 67.553 76.211 67 76.211 z M 46 74.211 h 20 v -9.706 c 0 -3.866 -3.145 -7.011 -7.011 -7.011 h -5.979 c -3.866 0 -7.011 3.145 -7.011 7.011 V 74.211 z" style="stroke: none; stroke-width: 1; stroke-dasharray: none; stroke-linecap: butt; stroke-linejoin: miter; stroke-miterlimit: 10; fill: rgb(0,0,0); fill-rule: nonzero; opacity: 1;" transform=" matrix(1 0 0 1 0 0) " stroke-linecap="round"/>
	<path d="M 34 57.494 c -3.914 0 -7.098 -3.184 -7.098 -7.098 v -3.698 c 0 -3.914 3.184 -7.098 7.098 -7.098 s 7.098 3.184 7.098 7.098 v 3.698 C 41.098 54.311 37.914 57.494 34 57.494 z M 34 41.601 c -2.811 0 -5.098 2.287 -5.098 5.098 v 3.698 c 0 2.811 2.287 5.098 5.098 5.098 s 5.098 -2.287 5.098 -5.098 v -3.698 C 39.098 43.887 36.811 41.601 34 41.601 z" style="stroke: none; stroke-width: 1; stroke-dasharray: none; stroke-linecap: butt; stroke-linejoin: miter; stroke-miterlimit: 10; fill: rgb(0,0,0); fill-rule: nonzero; opacity: 1;" transform=" matrix(1 0 0 1 0 0) " stroke-linecap="round"/>
	<path d="M 56 57.494 c -3.914 0 -7.098 -3.184 -7.098 -7.098 v -3.698 c 0 -3.914 3.184 -7.098 7.098 -7.098 s 7.098 3.184 7.098 7.098 v 3.698 C 63.098 54.311 59.914 57.494 56 57.494 z M 56 41.601 c -2.811 0 -5.098 2.287 -5.098 5.098 v 3.698 c 0 2.811 2.287 5.098 5.098 5.098 s 5.098 -2.287 5.098 -5.098 v -3.698 C 61.098 43.887 58.811 41.601 56 41.601 z" style="stroke: none; stroke-width: 1; stroke-dasharray: none; stroke-linecap: butt; stroke-linejoin: miter; stroke-miterlimit: 10; fill: rgb(0,0,0); fill-rule: nonzero; opacity: 1;" transform=" matrix(1 0 0 1 0 0) " stroke-linecap="round"/>
	<path d="M 12 41.601 c -0.552 0 -1 -0.448 -1 -1 v -1.907 c 0 -4.969 4.042 -9.011 9.011 -9.011 h 5.979 c 4.969 0 9.011 4.042 9.011 9.011 c 0 0.552 -0.448 1 -1 1 s -1 -0.448 -1 -1 c 0 -3.866 -3.145 -7.011 -7.011 -7.011 h -5.979 c -3.866 0 -7.011 3.145 -7.011 7.011 v 1.907 C 13 41.153 12.552 41.601 12 41.601 z" style="stroke: none; stroke-width: 1; stroke-dasharray: none; stroke-linecap: butt; stroke-linejoin: miter; stroke-miterlimit: 10; fill: rgb(0,0,0); fill-rule: nonzero; opacity: 1;" transform=" matrix(1 0 0 1 0 0) " stroke-linecap="round"/>
	<path d="M 23 31.683 c -3.914 0 -7.098 -3.184 -7.098 -7.098 v -3.698 c 0 -3.914 3.184 -7.098 7.098 -7.098 s 7.098 3.184 7.098 7.098 v 3.698 C 30.098 28.499 26.914 31.683 23 31.683 z M 23 15.789 c -2.811 0 -5.098 2.287 -5.098 5.098 v 3.698 c 0 2.811 2.287 5.098 5.098 5.098 s 5.098 -2.287 5.098 -5.098 v -3.698 C 28.098 18.076 25.811 15.789 23 15.789 z" style="stroke: none; stroke-width: 1; stroke-dasharray: none; stroke-linecap: butt; stroke-linejoin: miter; stroke-miterlimit: 10; fill: rgb(0,0,0); fill-rule: nonzero; opacity: 1;" transform=" matrix(1 0 0 1 0 0) " stroke-linecap="round"/>
	<path d="M 34 41.601 c -0.552 0 -1 -0.448 -1 -1 v -1.907 c 0 -4.969 4.042 -9.011 9.011 -9.011 h 5.979 c 4.969 0 9.011 4.042 9.011 9.011 c 0 0.552 -0.447 1 -1 1 s -1 -0.448 -1 -1 c 0 -3.866 -3.145 -7.011 -7.011 -7.011 h -5.979 c -3.866 0 -7.011 3.145 -7.011 7.011 v 1.907 C 35 41.153 34.552 41.601 34 41.601 z" style="stroke: none; stroke-width: 1; stroke-dasharray: none; stroke-linecap: butt; stroke-linejoin: miter; stroke-miterlimit: 10; fill: rgb(0,0,0); fill-rule: nonzero; opacity: 1;" transform=" matrix(1 0 0 1 0 0) " stroke-linecap="round"/>
	<path d="M 45 31.683 c -3.914 0 -7.098 -3.184 -7.098 -7.098 v -3.698 c 0 -3.914 3.184 -7.098 7.098 -7.098 c 3.914 0 7.098 3.184 7.098 7.098 v 3.698 C 52.098 28.499 48.914 31.683 45 31.683 z M 45 15.789 c -2.811 0 -5.098 2.287 -5.098 5.098 v 3.698 c 0 2.811 2.287 5.098 5.098 5.098 c 2.811 0 5.098 -2.287 5.098 -5.098 v -3.698 C 50.098 18.076 47.811 15.789 45 15.789 z" style="stroke: none; stroke-width: 1; stroke-dasharray: none; stroke-linecap: butt; stroke-linejoin: miter; stroke-miterlimit: 10; fill: rgb(0,0,0); fill-rule: nonzero; opacity: 1;" transform=" matrix(1 0 0 1 0 0) " stroke-linecap="round"/>
	<path d="M 78 41.601 c -0.553 0 -1 -0.448 -1 -1 v -1.907 c 0 -3.866 -3.145 -7.011 -7.011 -7.011 h -5.979 c -3.866 0 -7.011 3.145 -7.011 7.011 v 1.907 c 0 0.552 -0.447 1 -1 1 s -1 -0.448 -1 -1 v -1.907 c 0 -4.969 4.042 -9.011 9.011 -9.011 h 5.979 c 4.969 0 9.011 4.042 9.011 9.011 v 1.907 C 79 41.153 78.553 41.601 78 41.601 z" style="stroke: none; stroke-width: 1; stroke-dasharray: none; stroke-linecap: butt; stroke-linejoin: miter; stroke-miterlimit: 10; fill: rgb(0,0,0); fill-rule: nonzero; opacity: 1;" transform=" matrix(1 0 0 1 0 0) " stroke-linecap="round"/>
	<path d="M 67 31.683 c -3.914 0 -7.098 -3.184 -7.098 -7.098 v -3.698 c 0 -3.914 3.184 -7.098 7.098 -7.098 s 7.098 3.184 7.098 7.098 v 3.698 C 74.098 28.499 70.914 31.683 67 31.683 z M 67 15.789 c -2.811 0 -5.098 2.287 -5.098 5.098 v 3.698 c 0 2.811 2.287 5.098 5.098 5.098 s 5.098 -2.287 5.098 -5.098 v -3.698 C 72.098 18.076 69.811 15.789 67 15.789 z" style="stroke: none; stroke-width: 1; stroke-dasharray: none; stroke-linecap: butt; stroke-linejoin: miter; stroke-miterlimit: 10; fill: rgb(0,0,0); fill-rule: nonzero; opacity: 1;" transform=" matrix(1 0 0 1 0 0) " stroke-linecap="round"/>
	<path d="M 78 57.494 c -3.914 0 -7.098 -3.184 -7.098 -7.098 v -3.698 c 0 -3.914 3.184 -7.098 7.098 -7.098 s 7.098 3.184 7.098 7.098 v 3.698 C 85.098 54.311 81.914 57.494 78 57.494 z M 78 41.601 c -2.811 0 -5.098 2.287 -5.098 5.098 v 3.698 c 0 2.811 2.287 5.098 5.098 5.098 s 5.098 -2.287 5.098 -5.098 v -3.698 C 83.098 43.887 80.811 41.601 78 41.601 z" style="stroke: none; stroke-width: 1; stroke-dasharray: none; stroke-linecap: butt; stroke-linejoin: miter; stroke-miterlimit: 10; fill: rgb(0,0,0); fill-rule: nonzero; opacity: 1;" transform=" matrix(1 0 0 1 0 0) " stroke-linecap="round"/>
	<path d="M 89 76.211 H 67 c -0.553 0 -1 -0.447 -1 -1 V 64.505 c 0 -4.969 4.042 -9.011 9.011 -9.011 h 5.979 c 4.969 0 9.011 4.042 9.011 9.011 v 10.706 C 90 75.764 89.553 76.211 89 76.211 z M 68 74.211 h 20 v -9.706 c 0 -3.866 -3.145 -7.011 -7.011 -7.011 h -5.979 c -3.866 0 -7.011 3.145 -7.011 7.011 V 74.211 z" style="stroke: none; stroke-width: 1; stroke-dasharray: none; stroke-linecap: butt; stroke-linejoin: miter; stroke-miterlimit: 10; fill: rgb(0,0,0); fill-rule: nonzero; opacity: 1;" transform=" matrix(1 0 0 1 0 0) " stroke-linecap="round"/>
	<path d="M 12 57.494 c -3.914 0 -7.098 -3.184 -7.098 -7.098 v -3.698 c 0 -3.914 3.184 -7.098 7.098 -7.098 s 7.098 3.184 7.098 7.098 v 3.698 C 19.098 54.311 15.914 57.494 12 57.494 z M 12 41.601 c -2.811 0 -5.098 2.287 -5.098 5.098 v 3.698 c 0 2.811 2.287 5.098 5.098 5.098 s 5.098 -2.287 5.098 -5.098 v -3.698 C 17.098 43.887 14.811 41.601 12 41.601 z" style="stroke: none; stroke-width: 1; stroke-dasharray: none; stroke-linecap: butt; stroke-linejoin: miter; stroke-miterlimit: 10; fill: rgb(0,0,0); fill-rule: nonzero; opacity: 1;" transform=" matrix(1 0 0 1 0 0) " stroke-linecap="round"/>
	<path d="M 23 76.211 H 1 c -0.552 0 -1 -0.447 -1 -1 V 64.505 c 0 -4.969 4.042 -9.011 9.011 -9.011 h 5.979 c 4.969 0 9.011 4.042 9.011 9.011 v 10.706 C 24 75.764 23.552 76.211 23 76.211 z M 2 74.211 h 20 v -9.706 c 0 -3.866 -3.145 -7.011 -7.011 -7.011 H 9.011 C 5.145 57.494 2 60.639 2 64.505 V 74.211 z" style="stroke: none; stroke-width: 1; stroke-dasharray: none; stroke-linecap: butt; stroke-linejoin: miter; stroke-miterlimit: 10; fill: rgb(0,0,0); fill-rule: nonzero; opacity: 1;" transform=" matrix(1 0 0 1 0 0) " stroke-linecap="round"/>
</g>
</svg>