<svg xmlns="http://www.w3.org/2000/svg" xmlns:xlink="http://www.w3.org/1999/xlink" version="1.1" width="256" height="256" viewBox="0 0 256 256" xml:space="preserve">
<g style="stroke: none; stroke-width: 0; stroke-dasharray: none; stroke-linecap: butt; stroke-linejoin: miter; stroke-miterlimit: 10; fill: none; fill-rule: nonzero; opacity: 1;" transform="translate(1.4065934065934016 1.4065934065934016) scale(2.81 2.81)">
	<path d="M 63.788 60.969 c 0 0 0 -29.904 0 -29.904 v -5.26 c 0 -10.376 -8.412 -18.788 -18.788 -18.788 h 0 c -10.376 0 -18.788 8.412 -18.788 18.788 v 3.67 l 0.214 32.596 l 25.829 -1.101 H 63.788 z" style="stroke: none; stroke-width: 1; stroke-dasharray: none; stroke-linecap: butt; stroke-linejoin: miter; stroke-miterlimit: 10; fill: rgb(72,73,84); fill-rule: nonzero; opacity: 1;" transform=" matrix(1 0 0 1 0 0) " stroke-linecap="round"/>
	<path d="M 29.292 33.379 l -0.414 -4.177 c 10.281 -1.382 17.444 -3.593 21.558 -7.77 c 3.18 3.771 5.986 5.963 10.63 8.452 l -0.789 9.427 c -0.186 2.225 -0.754 4.357 -1.647 6.32 c -0.483 1.061 -1.06 2.073 -1.723 3.024 c -0.663 0.951 -1.412 1.841 -2.238 2.658 c -1.935 1.915 -4.291 3.429 -6.95 4.39 l 0 0 c -1.757 0.635 -3.68 0.635 -5.436 0 l 0 0 c -2.076 -0.75 -3.967 -1.837 -5.617 -3.189 C 31.067 47.51 30.556 41.662 29.292 33.379 z" style="stroke: none; stroke-width: 1; stroke-dasharray: none; stroke-linecap: butt; stroke-linejoin: miter; stroke-miterlimit: 10; fill: rgb(232,187,137); fill-rule: nonzero; opacity: 1;" transform=" matrix(1 0 0 1 0 0) " stroke-linecap="round"/>
	<path d="M 53.306 52.478 v 1.567 c 0 2.901 2.073 5.387 4.927 5.909 l 7.373 1.348 c 3.884 0.71 6.705 4.094 6.705 8.042 v 17.201 c 0 1.356 -1.099 2.456 -2.456 2.456 H 45 H 20.144 c -1.356 0 -2.456 -1.099 -2.456 -2.456 V 69.344 c 0 -3.948 2.822 -7.332 6.705 -8.042 l 7.373 -1.348 c 2.854 -0.522 4.927 -3.008 4.927 -5.909 l 0 -1.567 C 41.195 51.102 46.732 51.102 53.306 52.478 z" style="stroke: none; stroke-width: 1; stroke-dasharray: none; stroke-linecap: butt; stroke-linejoin: miter; stroke-miterlimit: 10; fill: rgb(232,187,137); fill-rule: nonzero; opacity: 1;" transform=" matrix(1 0 0 1 0 0) " stroke-linecap="round"/>
	<polyline points="28.59,89 45,89 71.63,89 " style="stroke: none; stroke-width: 1; stroke-dasharray: none; stroke-linecap: butt; stroke-linejoin: miter; stroke-miterlimit: 10; fill: rgb(214,244,252); fill-rule: nonzero; opacity: 1;" transform="  matrix(1 0 0 1 0 0) "/>
	<path d="M 71.315 89 c 0.734 0 1.326 -0.602 1.313 -1.336 l -0.317 -18.32 c 0 -3.948 -2.822 -7.332 -6.705 -8.042 l -7.373 -1.348 C 55.491 67.999 50.986 74.113 45 78.605 c -5.986 -4.493 -10.491 -10.606 -13.233 -18.651 l -7.373 1.348 c -3.884 0.71 -6.705 4.094 -6.705 8.042 v 0.996 v 17.346 c 0 0.725 0.588 1.313 1.313 1.313 H 71.315 z" style="stroke: none; stroke-width: 1; stroke-dasharray: none; stroke-linecap: butt; stroke-linejoin: miter; stroke-miterlimit: 10; fill: rgb(214,244,252); fill-rule: nonzero; opacity: 1;" transform=" matrix(1 0 0 1 0 0) " stroke-linecap="round"/>
	<path d="M 60.67 2.541 l -2.965 8.32 l -1.661 4.66 c -7.363 -2.065 -14.726 -2.065 -22.089 0 l -1.661 -4.661 L 29.33 2.541 C 39.777 0.476 50.223 0.476 60.67 2.541 z" style="stroke: none; stroke-width: 1; stroke-dasharray: none; stroke-linecap: butt; stroke-linejoin: miter; stroke-miterlimit: 10; fill: rgb(214,244,252); fill-rule: nonzero; opacity: 1;" transform=" matrix(1 0 0 1 0 0) " stroke-linecap="round"/>
	<path d="M 34.118 49.668 c -1.301 -3.005 -0.346 -10.127 5.268 -10.926 c 3.79 -2.846 7.532 -2.811 11.229 0 c 5.174 0.277 6.852 7.581 5.551 10.586 l 0 0 c -0.431 0.528 -0.891 1.034 -1.377 1.514 c -1.959 1.938 -4.344 3.471 -7.037 4.445 l 0 0 c -1.778 0.643 -3.726 0.643 -5.504 0 l 0 0 C 39.031 54.125 36.254 52.164 34.118 49.668 z" style="stroke: none; stroke-width: 1; stroke-dasharray: none; stroke-linecap: butt; stroke-linejoin: miter; stroke-miterlimit: 10; fill: rgb(214,244,252); fill-rule: nonzero; opacity: 1;" transform=" matrix(1 0 0 1 0 0) " stroke-linecap="round"/>
	<path d="M 41.817 33.129 c -0.146 0 -0.293 -0.032 -0.432 -0.099 c -1.879 -0.902 -3.706 -0.902 -5.585 0 c -0.496 0.237 -1.095 0.029 -1.334 -0.469 c -0.239 -0.498 -0.029 -1.095 0.469 -1.334 c 2.427 -1.166 4.889 -1.166 7.316 0 c 0.498 0.239 0.708 0.836 0.469 1.334 C 42.547 32.92 42.189 33.129 41.817 33.129 z" style="stroke: none; stroke-width: 1; stroke-dasharray: none; stroke-linecap: butt; stroke-linejoin: miter; stroke-miterlimit: 10; fill: rgb(0,0,0); fill-rule: nonzero; opacity: 1;" transform=" matrix(1 0 0 1 0 0) " stroke-linecap="round"/>
	<path d="M 54.079 33.129 c -0.145 0 -0.292 -0.031 -0.432 -0.099 c -1.878 -0.901 -3.705 -0.902 -5.585 0 c -0.501 0.238 -1.096 0.028 -1.334 -0.469 c -0.239 -0.498 -0.029 -1.095 0.469 -1.334 c 2.43 -1.165 4.89 -1.164 7.316 0 c 0.498 0.239 0.708 0.836 0.469 1.334 C 54.809 32.92 54.452 33.129 54.079 33.129 z" style="stroke: none; stroke-width: 1; stroke-dasharray: none; stroke-linecap: butt; stroke-linejoin: miter; stroke-miterlimit: 10; fill: rgb(0,0,0); fill-rule: nonzero; opacity: 1;" transform=" matrix(1 0 0 1 0 0) " stroke-linecap="round"/>
	<path d="M 66.043 59.973 l -1.021 -0.187 V 30.343 v -5.326 c 0 -5.449 -2.238 -10.668 -6.156 -14.434 l 2.746 -7.705 c 0.098 -0.274 0.07 -0.577 -0.073 -0.83 c -0.144 -0.253 -0.39 -0.431 -0.675 -0.487 c -10.528 -2.08 -21.202 -2.08 -31.729 0 c -0.285 0.056 -0.532 0.234 -0.676 0.487 c -0.144 0.253 -0.17 0.556 -0.072 0.83 l 2.746 7.705 c -3.918 3.767 -6.156 8.986 -6.156 14.435 v 5.326 v 29.444 l -1.02 0.186 c -4.41 0.806 -7.61 4.644 -7.61 9.126 v 17.415 c 0 1.923 1.564 3.487 3.486 3.487 h 50.331 c 1.923 0 3.487 -1.564 3.487 -3.487 V 69.099 C 73.652 64.617 70.451 60.779 66.043 59.973 z M 59.336 3.305 l -3.924 11.01 c -3.457 -0.891 -6.935 -1.336 -10.413 -1.336 s -6.955 0.445 -10.412 1.336 l -1.347 -3.781 c 0 0 0 -0.001 0 -0.001 l -2.576 -7.228 C 40.183 1.565 49.818 1.565 59.336 3.305 z M 26.977 30.343 v -5.326 c 0 -4.597 1.779 -9.006 4.905 -12.334 l 1.131 3.174 c 0.176 0.494 0.707 0.77 1.212 0.627 c 7.15 -2.006 14.399 -2.005 21.549 0 c 0.09 0.025 0.181 0.037 0.27 0.037 c 0.413 0 0.797 -0.257 0.942 -0.664 l 1.131 -3.174 c 3.125 3.328 4.904 7.737 4.904 12.334 v 5.326 v 29.078 l -4.445 -0.812 c -2.414 -0.442 -4.167 -2.544 -4.167 -4.999 v -1.094 c 0.365 -0.314 0.737 -0.62 1.082 -0.962 c 0.879 -0.869 1.681 -1.821 2.383 -2.829 c 0.705 -1.011 1.322 -2.094 1.835 -3.221 c 0.968 -2.13 1.558 -4.393 1.753 -6.729 l 0.799 -9.544 c 0.033 -0.397 -0.172 -0.777 -0.523 -0.965 c -4.654 -2.493 -7.393 -4.67 -10.472 -8.32 c -0.182 -0.215 -0.445 -0.344 -0.726 -0.355 c -0.302 -0.004 -0.555 0.097 -0.752 0.297 c -3.705 3.763 -10.259 6.1 -21.246 7.577 c -0.528 0.071 -0.908 0.544 -0.863 1.075 l 0.856 10.234 c 0.358 4.284 2.072 8.25 4.745 11.421 c 0.047 0.074 0.1 0.14 0.163 0.198 c 0.661 0.765 1.376 1.484 2.146 2.145 v 1.071 c 0 2.455 -1.753 4.558 -4.168 4.999 l -4.445 0.812 V 30.343 z M 45 77.216 c -5.473 -4.286 -9.518 -9.992 -12.076 -16.952 c 2.633 -0.953 4.481 -3.394 4.648 -6.236 c 1.338 0.891 2.786 1.64 4.336 2.2 c 0.997 0.36 2.045 0.54 3.092 0.54 c 1.047 0 2.095 -0.18 3.092 -0.54 c 1.548 -0.559 2.99 -1.306 4.336 -2.201 c 0.167 2.843 2.014 5.284 4.648 6.238 C 54.518 67.224 50.474 72.93 45 77.216 z M 30.529 38.607 l -0.193 -2.308 c 1.86 1.436 3.789 2.2 5.721 2.72 c -0.854 0.621 -1.577 1.448 -2.147 2.465 c -0.748 1.335 -1.128 2.836 -1.25 4.265 C 31.49 43.573 30.742 41.153 30.529 38.607 z M 57.481 45.473 c -0.205 -1.53 -0.72 -3.095 -1.507 -4.366 c -0.625 -1.01 -1.379 -1.8 -2.237 -2.363 c 2.256 -0.868 4.254 -1.934 5.988 -3.181 l -0.255 3.044 c -0.177 2.107 -0.709 4.148 -1.581 6.068 C 57.766 44.947 57.619 45.207 57.481 45.473 z M 59.953 32.846 c -2.361 2.053 -5.442 3.662 -9.16 4.792 c -3.842 -2.714 -7.751 -2.702 -11.633 0.037 c -3.226 -0.652 -6.277 -1.366 -9.066 -4.277 l -0.341 -4.081 c 10.2 -1.452 16.671 -3.725 20.677 -7.28 c 2.863 3.247 5.568 5.363 9.786 7.677 L 59.953 32.846 z M 34.987 49.124 c -0.611 -1.583 -0.538 -4.506 0.669 -6.662 c 0.88 -1.571 2.182 -2.49 3.871 -2.73 c 0.051 -0.007 0.098 -0.026 0.147 -0.04 c 0.022 -0.007 0.045 -0.01 0.066 -0.018 c 0.087 -0.033 0.171 -0.075 0.246 -0.132 c 3.394 -2.55 6.673 -2.551 10.023 -0.004 c 0.002 0.001 0.003 0.002 0.005 0.003 c 0.026 0.02 0.058 0.03 0.085 0.047 c 0.06 0.037 0.12 0.073 0.186 0.096 c 0.038 0.013 0.078 0.015 0.117 0.024 c 0.053 0.012 0.104 0.03 0.159 0.033 c 1.894 0.102 3.064 1.372 3.713 2.42 c 1.344 2.172 1.596 5.149 1.007 6.662 c -0.378 0.454 -0.775 0.894 -1.196 1.31 c -1.904 1.885 -4.15 3.303 -6.673 4.215 c -1.555 0.563 -3.269 0.563 -4.825 0 C 39.595 53.266 37.001 51.441 34.987 49.124 z M 18.348 86.513 V 69.099 c 0 -3.516 2.51 -6.526 5.969 -7.159 l 6.645 -1.215 C 33.679 68.238 38.057 74.366 44 78.951 V 88 H 29.385 v -4.639 c 0 -0.553 -0.448 -1 -1 -1 c -0.552 0 -1 0.447 -1 1 V 88 h -7.55 C 19.015 88 18.348 87.333 18.348 86.513 z M 71.652 86.513 c 0 0.819 -0.667 1.486 -1.486 1.486 h -7.549 v -4.639 c 0 -0.553 -0.447 -1 -1 -1 c -0.553 0 -1 0.447 -1 1 V 88 H 46 v -9.049 c 5.944 -4.585 10.321 -10.713 13.037 -18.225 l 6.647 1.215 c 3.458 0.633 5.968 3.643 5.968 7.159 V 86.513 z" style="stroke: none; stroke-width: 1; stroke-dasharray: none; stroke-linecap: butt; stroke-linejoin: miter; stroke-miterlimit: 10; fill: rgb(0,0,0); fill-rule: nonzero; opacity: 1;" transform=" matrix(1 0 0 1 0 0) " stroke-linecap="round"/>
</g>
</svg>