<?xml version="1.0" encoding="UTF-8"?>
<svg id="_x3C_Layer_x3E_" xmlns="http://www.w3.org/2000/svg" version="1.1" viewBox="0 0 6110 2680">
  <!-- Generator: Adobe Illustrator 29.8.1, SVG Export Plug-In . SVG Version: 2.1.1 Build 2)  -->
  <defs>
    <style>
      .st0 {
        fill: #231f20;
      }

      .st1 {
        fill: #d30000;
      }

      .st2 {
        fill: #fff;
      }

      .st3 {
        fill: #7e8083;
      }
    </style>
  </defs>
  <path class="st0" d="M1198.34,228.02H200v1171.26c0,2.72,0,5.42.02,8.1,1.1,226.74,107.62,442.62,293.79,590.46,375.92,298.51,704.54,454.13,704.54,454.13,0,0,328.62-155.62,704.54-454.13,186.18-147.84,292.69-363.72,293.79-590.46.01-2.68.02-5.39.02-8.1V228.02h-998.34Z"/>
  <path class="st1" d="M1251.86,2339.16,1198.4,2311.97c-105.64-55.62-354.58-195.62-626.96-411.91-155.78-123.71-245.64-303.5-246.56-493.28l-.03-835.39h1746.97l-.03,835.3c-.91,189.87-90.78,369.67-246.56,493.37-273.31,217.03-521.42,356.48-626.84,411.91Z"/>
  <path class="st1" d="M1305.05,406.03c.12.35-.72.97-1.27,1.41-15.58,12.68-31.07,25.59-47.07,38.3-2.34,1.86-6.43,3.92-6.22,7.49.09,1.47,1.09,3.47,1.7,5.09,1.79,4.8,3.91,10.15,5.65,14.7-13.6-2.02-27.35-4.86-41.27-7.21-4.57-.77-9.09-1.91-13.72-2.12-.13,17.69.99,36.09,1.28,54.14h-11.45c.66-15.88.66-31.91,1.41-48.05.1-2.11.54-4.35-.28-6.36-2.33.07-4.63.67-6.93,1.13-15.98,3.21-32.4,6.16-48.48,9.33,1.11-2.88,2.49-6.07,3.81-9.47,1.25-3.2,3.07-6.56,3.39-9.75.54-5.43-3.76-7.41-6.93-10.04-15.41-12.77-32.55-26.11-47.07-38.59,2.04-.87,4.4-1.77,6.93-2.83,2.02-.85,5.93-2.08,6.79-3.39,1.6-2.45-.25-7.05-.99-9.75-2.51-9.17-5.32-19.27-7.64-27.84,6.39,1.44,14.79,3.23,21.91,4.66,4.12.83,9.59,2.34,12.01-.85,1.24-1.64,2.11-5.05,2.97-7.21.99-2.48,1.97-4.86,2.82-7.35,1.38.87,2.33,2.37,3.39,3.67,5.38,6.6,10.6,13,16.82,19.22,1.07,1.07,2.15,2.27,3.67,3.53,1.12.93,3.06,2.84,4.66,2.54,2.32-.42,1.4-5.81.99-7.78-3.89-18.88-7.6-38.31-11.59-56.96.48-.32.83.37,1.13.57,4.85,3.18,9.54,6.4,14.84,9.61,1.63.99,4.07,2.87,6.22,2.69,2.94-.25,4.84-6.59,6.08-9.05,3.45-6.85,6.76-13.56,10.04-20.07,1.73-3.45,3.25-7.09,5.09-10.46.12-.03.13.06.14.14,5.8,11.45,11.89,22.99,17.95,34.77.77,1.51,1.62,4.35,2.82,4.67,2.23.57,5.24-1.51,6.79-2.4,5.82-3.34,11.85-6.99,17.38-9.89-4.17,18.7-8.26,37.77-12.58,56.82-.4,1.78-1.64,7.3.28,7.92,1.78.57,4.07-1.47,4.95-2.26,2.21-2,4.09-4.66,6.21-7.07,6.07-6.86,12.45-14.52,18.52-20.92.85,2.38,1.87,4.84,2.83,7.49.92,2.55,1.38,5.55,2.54,7.78,2.12,4.06,9.36,1.62,13.43.71,6.66-1.49,14.23-3.14,20.92-4.52-2.82,9.67-5.77,21.13-8.62,31.8-.86,3.25-1.42,5.2,1.13,6.93,3.44,2.31,8.66,3.32,12.59,5.09h0Z"/>
  <g>
    <g>
      <path class="st2" d="M588.82,464.01v.73h-56.99v-.73c6.19-1.94,10.29-4.61,12.29-8.01,2-3.52,2.97-9.13,2.91-16.84v-77.75c0-7.52-.97-13.05-2.91-16.57-2-3.4-6.1-6.07-12.29-8.01v-.73h57.9c30.47,0,45.7,11.44,45.7,34.32,0,5.46-.85,10.36-2.55,14.7-1.7,4.34-4.01,7.92-6.92,10.74s-6.4,5.16-10.47,7.01c-4.07,1.85-8.36,3.17-12.88,3.96-4.52.79-9.36,1.18-14.52,1.18h-17.3v31.14c0,7.46,1.24,12.99,3.73,16.57,2.49,3.58,7.25,6.34,14.29,8.28ZM570.8,342.47v59.27h8.92c11.53,0,19.82-2.91,24.85-8.74,5.04-5.89,7.56-12.99,7.56-21.3s-2.13-15.42-6.37-20.94c-4.25-5.52-11.02-8.28-20.3-8.28h-14.66Z"/>
      <path class="st2" d="M775.18,464.01v.73h-14.11c-8.13,0-13.84-.36-17.12-1.09-3.34-.73-6.07-2.12-8.19-4.19-2.25-2.19-5.31-6.28-9.2-12.29l-26.13-40.24h-9.65v32.23c0,7.65.97,13.26,2.91,16.84,2,3.46,6.04,6.13,12.11,8.01v.73h-53.99v-.73c6.19-1.94,10.29-4.61,12.29-8.01,2-3.52,2.97-9.13,2.91-16.84v-77.75c0-7.52-.97-13.05-2.91-16.57-2-3.4-6.1-6.07-12.29-8.01v-.73h56.44c31.8,0,47.7,11.2,47.7,33.59,0,8.68-3.34,15.75-10.01,21.21-6.62,5.46-14.51,9.38-23.67,11.74l30.13,41.79c5.64,7.71,9.68,12.59,12.11,14.66,2.55,2.19,6.1,3.82,10.65,4.92ZM690.78,342.47v58.72h7.37c10.44,0,18.68-2.55,24.72-7.65,6.04-5.1,9.06-12.62,9.06-22.58,0-7.77-2.26-14.46-6.78-20.07-4.52-5.61-10.58-8.42-18.16-8.42h-16.21Z"/>
      <path class="st2" d="M765.71,336.82v-.73h51.26v.73c-3.46,1.21-5.98,2.82-7.56,4.83-1.58,2-2.34,5.04-2.28,9.1,0,4.19,2.31,15.2,6.92,33.05l17.12,66.91,19.21-65c4.01-13.23,6.01-22.94,6.01-29.13,0-5.52-.93-9.74-2.78-12.65-1.85-2.91-5.3-5.28-10.33-7.1v-.73h47.16v.73c-3.88,1.27-6.52,2.97-7.92,5.1-1.4,2.12-2.09,5.28-2.09,9.47,0,4.43,1.55,12.26,4.64,23.49l20.3,73.29,19.94-62.64c4.49-14.02,6.74-23.97,6.74-29.86,0-5.28-.88-9.3-2.64-12.06-1.76-2.76-5.04-5.02-9.83-6.78v-.73h43.79v.73c-3.58,1.64-6.55,3.7-8.92,6.19-5.22,5.46-11.81,20-19.76,43.61l-26.49,78.11h-20.12l-25.4-90.58-27.95,90.58h-22.21l-22.12-78.84c-4.79-17.6-8.89-29.62-12.29-36.05-3.28-6.37-7.41-10.71-12.38-13.02Z"/>
    </g>
    <g>
      <path class="st2" d="M1600.56,464.19v.55h-52.08v-.73c5.16-2.18,8.72-4.6,10.7-7.24,1.97-2.64,2.96-6.63,2.96-11.97s-.18-10.32-.55-15.48l-4.73-74.02-46.61,109.43h-9.47l-43.24-110.34h-.55l-4.92,72.83c-.36,5.1-.55,10.32-.55,15.66,0,5.71,1.09,10.18,3.28,13.43,2.19,3.25,5.95,5.81,11.29,7.69v.73h-40.69v-.73c6.43-2.06,10.62-5.46,12.56-10.2,1.82-4.43,3.25-13.29,4.28-26.58l4.28-57.17c.49-7.47.73-12.87.73-16.21,0-4.37-1.14-7.8-3.41-10.29-2.28-2.49-5.66-4.73-10.15-6.74v-.73h41.15l38.78,98.96,41.97-98.96h38.24v.73c-4.92,2.06-8.42,4.43-10.52,7.1-2.09,2.67-3.14,6.52-3.14,11.56,0,4.61.18,9.41.55,14.38l3.91,57.54c1.03,13.84,2.34,22.76,3.91,26.77,1.64,4.01,5.64,7.34,12.02,10.01Z"/>
      <path class="st2" d="M1708.62,464.73h-94.32v-.73c6.19-1.94,10.29-4.61,12.29-8.01,2-3.46,3-9.07,3-16.84v-77.75c0-7.28-.97-12.71-2.91-16.3-1.94-3.58-6.07-6.34-12.38-8.28v-.73h88.95v28.68h-.82c-5.46-9.41-9.95-15.42-13.47-18.03-3.4-2.61-8.65-3.91-15.75-3.91h-19.94v52.35h20.3c4.98,0,8.92-.92,11.84-2.78,2.91-1.85,5.8-5.02,8.65-9.51h.73v31.32h-.73c-2.97-4.61-5.84-7.78-8.6-9.51-2.76-1.73-6.72-2.59-11.88-2.59h-20.3v55.9h17.12c6.07,0,10.29-.12,12.65-.36,2.85-.3,5.89-1.49,9.1-3.55,3.22-2.06,5.95-4.37,8.19-6.92,3.46-4.19,7.22-8.83,11.29-13.93h.73l-3.73,31.5Z"/>
      <path class="st2" d="M1787.64,464.73h-59.45v-.73c6.19-1.94,10.29-4.61,12.29-8.01,2-3.52,2.97-9.13,2.91-16.84v-77.75c0-7.52-.97-13.05-2.91-16.57-2-3.4-6.1-6.07-12.29-8.01v-.73h61.45c20.76,0,38.27,5.34,52.53,16.02,14.2,10.68,21.3,26.1,21.3,46.25,0,8.56-1.32,16.45-3.96,23.67-2.64,7.22-6.31,13.43-11.02,18.62-4.7,5.19-10.24,9.62-16.61,13.29-6.37,3.67-13.29,6.39-20.76,8.15-7.47,1.76-15.29,2.64-23.49,2.64ZM1767.15,342.83v115.17h20.48c15.72,0,27.98-5.58,36.78-16.75,8.92-11.17,13.38-25,13.38-41.51s-4.61-30.07-13.84-40.88c-9.23-10.68-20.61-16.02-34.14-16.02h-22.67Z"/>
    </g>
  </g>
  <g>
    <path class="st2" d="M1340.27,1524.1c-1.53-.77-2.31-1.01-2.92-1.48-16.38-12.59-35.32-19.58-55.03-24.62-10.67-2.73-21.59-4.53-32.38-6.77-1.45-.3-2.86-.79-6.02-1.68,4.13-1.27,6.51-2.05,8.92-2.74,17.43-5.04,34.81-10.25,50.97-18.69,5.81-3.04,11.45-6.43,16.98-9.97,4.45-2.85,8.3-6.48,11.27-10.9,6.68-9.94,5.59-19.8-3.19-27.5-5.63-4.94-12.14-8.24-19.14-10.72-12.94-4.6-26.33-7.33-39.89-9.06-24.5-3.14-49.05-5.87-73.56-8.99-21.37-2.72-42.76-5.43-64.05-8.72-20.51-3.17-40.98-6.68-61.32-10.76-31.48-6.32-62.33-14.98-92.09-27.16-17.56-7.19-34.29-15.95-49.83-26.94-32.64-23.09-47.68-55.23-47.65-94.53.02-22.35,8.17-42.13,23.15-58.87,11.66-13.02,26.62-20.45,43.42-24.05,14.01-3,28.16-3.51,42.14.68,3.16.95,6.17,1,9.19-.47,6.82-3.3,14.05-3.93,21.52-3.46,10.76.68,21.53,1,32.3,1.62,11.06.64,21.05,4.14,29.73,11.23,9.83,8.03,21.01,13.92,32.11,19.94,3,1.63,6.06,3.17,8.99,4.92,2.25,1.34,4.51,2.76,6.48,4.46,7.74,6.66,9.12,13.27,4.55,22.43-2.02,4.06-5.03,7.35-8.28,10.45-2.6,2.48-5.66,3.49-9.23,3.83-10.2.97-20.37,2.17-30.55,3.38-10.17,1.21-20.31,2.77-30.51,3.76-6,.58-12.1.71-18.12.41-11.42-.57-21.4-5.08-30.05-12.45-8.21-6.99-17.62-11.54-28.11-13.52-10.99-2.07-21.02.94-29.26,8.36-7.77,7-12.73,18.29-6.39,31.6,5.05,10.62,12.52,19.41,21.43,26.97,8.85,7.53,18.65,13.65,29.03,18.85,21.51,10.77,44.22,18.11,67.56,23.62,30.98,7.33,62.44,11.96,94,15.9,25.29,3.16,50.62,6.05,75.93,9.1,18.26,2.2,36.55,4.26,54.77,6.77,17.44,2.4,34.86,5,51.91,9.53,13.84,3.67,26.82,9.24,38.52,17.57,19.41,13.81,32.36,32.05,37.62,55.44,2.5,11.14,2.98,22.37.78,33.66-1.17,6.01-3.52,11.54-6.45,16.86-3.71,6.73-8.37,12.75-13.95,18.01-16.11,15.17-35.39,25.25-55.3,34.69ZM1053.46,1173.18c3.32,3.27,6,6.45,9.64,8.92,3.22-3.39,6.25-6.59,9.35-9.86-3.58-2.97-6.93-5.74-10.38-8.6-2.82,3.13-5.42,6.01-8.6,9.54Z"/>
    <path class="st2" d="M1984.19,929.55c-.29.84-.47,2.14-1.11,3.15-12.08,19.27-28.08,33.34-51.19,37.42-11.74,2.08-23.62,1.81-35.36,0-16.9-2.6-33.4-6.98-49.79-11.86-46.61-13.88-92.41-30.16-138.38-45.93-48.71-16.71-97.42-33.41-146.1-50.23-13.91-4.8-27.67-10.01-41.51-15.01-10.91-3.94-22.01-7.01-33.66-7.9-8.99-.69-17.86-.22-26.64,1.8-13.02,2.99-23.8,9.46-31.87,20.28-6.87,9.21-11.43,19.44-14.18,30.54-1.01,4.08-1.98,8.17-2.82,12.29-4.87,23.7-17.86,42.4-35.97,57.79-17.19,14.6-37.34,23.28-59.05,28.68-21.09,5.25-42.53,6.66-64.18,5.75-.76-.03-1.51-.35-2.56-.61-1.83-5.58-.7-11.36-.66-17.04.04-5.78.61-11.55.84-17.33.23-5.78.3-11.57.48-17.35.18-5.7.09-11.43,1.26-17.28,6.37,1.34,11.94,2.79,17.6,3.66,20.8,3.2,39.66-2.03,56.67-14.02,7.58-5.34,12.18-12.97,14.27-22.03,1.86-8.04,2.17-16.16.35-24.24-1.79-7.94-3.84-15.83-5.75-23.74-6.37-26.48,5.11-60.79,33.05-77.58,15.89-9.55,33.04-13.11,51.38-11.77,17.94,1.31,35.38,5.13,52.33,10.98,40.74,14.05,81.39,28.35,122.07,42.56,82.6,28.85,165.17,57.82,247.83,86.5,26.56,9.22,53.47,17.37,80.93,23.6,18.76,4.26,37.68,7.2,56.97,7.42,1.3.01,2.6.25,3.89.44.18.03.31.36.86,1.04Z"/>
    <path class="st2" d="M412.49,928.67c1.34-.18,2.34-.42,3.34-.43,25.98-.11,51.19-5.21,76.13-11.91,27.42-7.37,54.43-16.1,81.23-25.45,62.77-21.91,125.46-44.03,188.2-66.03,49.84-17.48,99.68-34.95,149.56-52.32,16.88-5.88,33.94-11.18,51.67-14.02,16.32-2.61,32.52-2.84,48.33,2.56,27.69,9.46,44.66,28.62,50.67,57.3,1.52,7.27,1.58,14.68.05,21.95-1.67,7.97-3.71,15.86-5.74,23.75-2.05,7.99-2.82,15.99-1.62,24.21,1.38,9.49,5.48,17.47,12.35,24.08,9.17,8.82,20.31,13.97,32.46,17.02,11.36,2.85,22.84,3.27,34.36.57,3.27-.77,6.62-1.18,9.93-1.76,1.2,6.6,2.7,61.44,1.91,67.32-2.28,2.37-5.33,2.02-8.13,1.9-9.19-.39-18.41-.62-27.54-1.65-16.49-1.86-32.66-5.52-48.31-11.07-21.97-7.79-41.01-20.04-56.3-37.83-9.78-11.37-16.46-24.32-19.99-38.9-1.61-6.64-2.96-13.35-4.77-19.93-3.33-12.1-8.89-23.02-17.92-31.96-9.5-9.4-20.89-14.79-34.17-16.39-15.99-1.92-31.48.35-46.62,5.35-11.23,3.71-22.34,7.76-33.51,11.65-32.99,11.51-65.96,23.1-98.98,34.53-36.25,12.55-72.54,25-108.83,37.43-36.54,12.51-73.17,24.77-110.41,35.11-14.97,4.16-30.12,7.4-45.77,7.54-10.3.09-20.47-.48-30.29-4.1-18.36-6.77-31.83-19.05-41.13-36.1-.22-.41-.08-1.01-.17-2.44Z"/>
    <path class="st2" d="M1010.93,1370.67c13.09,3.45,25.95,7.13,38.96,10.18,13.04,3.06,26.2,5.68,39.37,8.13,13.1,2.44,26.29,4.45,40.98,6.9-8.67,2.03-15.88,3.39-22.89,5.45-7.8,2.29-15.46,5.09-23.07,7.95-3.17,1.19-6.21,2.89-9.06,4.74-2.84,1.85-5.63,3.94-8,6.36-9.36,9.57-9.7,20.52-1.12,31.11,3.18,3.92,7.17,6.94,11.47,9.54,7.91,4.79,16.35,8.4,25.08,11.39,19.43,6.65,39.28,11.74,59.44,15.58,28.91,5.51,57.89,10.67,86.81,16.11,20.69,3.89,41.17,8.58,60.53,17.18,9.42,4.18,18.24,9.37,26.24,15.87,31.37,25.5,35.06,63.22,24.34,91.95-3.94,10.58-10.41,19.41-19.58,26.16-1.48,1.09-2.91,2.27-4.48,3.22-9.87,5.98-19.77,11.91-29.44,17.72-5.89-3.63-11.1-7.18-16.62-10.16-5.31-2.86-10.85-5.35-16.46-7.58-5.85-2.33-11.85-4.33-17.88-6.13-5.67-1.69-11.48-2.93-18.95-4.8,3.75-1.3,5.85-2,7.92-2.76,7.64-2.79,15.43-5.27,22.87-8.53,5.26-2.3,10.23-5.4,14.99-8.65,2.99-2.03,5.68-4.73,7.93-7.58,7.8-9.91,7.67-21.18-.07-31.17-4.12-5.31-9.52-9-15.45-11.99-8.98-4.53-18.52-7.55-28.28-9.67-20.03-4.34-40.12-8.41-60.23-12.36-26.3-5.16-52.78-9.34-78.84-15.78-18.4-4.54-36.42-10.24-54.2-16.75-11.14-4.07-21.78-9.22-31.95-15.33-11.64-7-21.44-15.99-29.44-27.01-11.4-15.72-15.36-33.23-12.68-52.28,3.18-22.55,14.17-40.98,30.53-56.44.36-.34.92-.47,1.2-.6Z"/>
    <path class="st2" d="M1387.75,1355.81c-1.85-1.06-3.47-1.9-5-2.88-16.37-10.5-34.28-17.04-53.27-20.89-20.62-4.18-41.42-7.18-62.29-9.74-1.74-.21-3.44-.77-5.18-2.16,1.08-.24,2.15-.56,3.25-.7,27.38-3.67,54.52-8.56,81.21-15.73,16.77-4.51,33.18-10.11,48.98-17.38,11.03-5.08,21.47-11.15,31-18.69,10-7.91,18.51-17.12,24.44-28.54,2.34-4.52,3.79-9.28,3.63-14.37-.29-9.39-4.65-16.6-12.49-21.59-14.99-9.53-30.98-8.53-45.91,1.36-2.61,1.73-4.88,3.99-7.28,6.04-10.23,8.71-22.01,12.93-35.48,12.98-10.57.04-20.98-1.34-31.42-2.5-14.62-1.63-29.2-3.65-43.82-5.36-2.98-.35-5.56-1.3-7.99-2.99-5.39-3.75-8.89-8.82-11.03-14.97-1.47-4.25-1.07-8.27,1.01-12.18,1.89-3.56,4.52-6.5,7.91-8.63,3.33-2.1,6.72-4.14,10.26-5.84,11.63-5.61,22.88-11.85,33.2-19.66,11.49-8.7,24.34-13.22,38.79-13.48,9.72-.18,19.44-.73,29.16-1.2,5.88-.29,11.54.47,16.88,3.06,2.94,1.42,5.94,2.12,9.13.93,10.94-4.06,22.24-3.67,33.52-2.43,24.85,2.72,44.86,14.12,59.76,34.22,8.16,11.01,12.83,23.56,14.57,37.05,4.21,32.63-3.47,62.11-24.27,87.86-7.16,8.87-15.92,16.01-25.27,22.46-15.67,10.8-32.72,18.99-50.26,26.19-8.49,3.48-17.15,6.54-25.73,9.79ZM1333.53,1182.64c3.55-3.66,6.37-6.58,9.52-9.83-3.38-3.39-6.43-6.44-9.47-9.5-3.69,3.15-6.96,5.95-9.41,8.05,2.97,3.58,5.8,6.99,9.37,11.27Z"/>
    <path class="st2" d="M1220.58,1316.16c-6.2-.65-12.71-1.06-19.13-2.07-9.3-1.45-18.78-1.7-28.4-3.78-7.31-139.18-12.52-278.04-17.98-417.53,1.88.37,3.1.46,4.22.86,1.48.53,2.86,1.33,4.3,1.97,22.92,10.25,45.8,10.25,68.65-.24,1.86-.85,3.77-1.59,5.36-2.25.68.39.94.47,1.08.64.16.19.29.48.29.72-.12,5.78-.17,11.55-.39,17.33-5.17,134.2-8.94,268.45-16.87,402.53-.03.45-.51.87-1.11,1.83Z"/>
    <path class="st2" d="M1155.66,1563.12c-1.89,2.38-4.46,1.75-6.65,2.2-6.43,1.32-12.97,2.2-19.31,3.84-7.42,1.92-14.4,5.03-20.38,10-7.28,6.05-11.4,13.58-10.94,23.34.22,4.63,1.73,8.73,4.15,12.56,3.15,4.98,7.42,8.84,12.22,12.15,6.1,4.2,12.7,7.4,19.67,9.9,17.37,6.22,35.29,10.28,53.33,13.96,19.82,4.05,39.65,8.09,59.37,12.62,12.83,2.95,25.21,7.42,36.75,13.93,16.18,9.14,27.79,22.29,34.5,39.63,5.59,14.45,6.37,29.16,1.74,44.05-3.11,10.02-8.54,18.53-16.35,25.59-6.88,6.22-14.79,10.9-23.1,16.03-7.03-5.63-14.54-10.84-22.76-14.95-8.22-4.11-16.84-7.14-26.86-9.74,3.06-1.34,4.97-2.14,6.86-3,6.46-2.96,12.78-6.18,18.38-10.64,4.16-3.31,7.69-7.13,10.07-11.96,3.65-7.41,2.84-14.22-2.53-20.5-3.65-4.27-8.25-7.3-13.05-10.07-10.33-5.96-21.43-10.05-32.95-12.87-15.82-3.87-31.72-7.47-47.64-10.93-20.81-4.51-41.57-9.18-61.87-15.7-11.27-3.62-22.47-7.49-32.96-13.01-6.26-3.29-12.34-7.04-18.11-11.14-13.93-9.88-22.32-23.45-25.66-40.2-2.34-11.75-2.56-23.51-.33-35.28,1.94-10.25,6.04-19.58,12.81-27.59,2.54-3.01,5.22-5.92,8.06-8.65,8.16-7.85,8.17-7.68,19.19-4.02,23.98,7.97,48.45,14,73.35,18.32,3.61.63,7.19,1.38,10.98,2.11Z"/>
    <path class="st2" d="M1318.12,1034.48c-1.48,2.64-2.49,4.76-3.78,6.68-4.74,7.1-11.2,9.29-19.14,6.02-3.34-1.37-6.3-3.72-9.34-5.75-1.28-.86-2.33-2.07-3.82-3.43-2.69,2.13-5.22,4.34-7.95,6.25-9.18,6.43-19.25,1.62-23.42-4.94-2.35-3.69-3.37-7.72-3.06-12.01.19-2.6.68-5.23,1.41-7.74,1.39-4.81,4.61-7.54,9.76-7.64,5.26-.1,10.52-.14,15.78-.23,26.32-.43,51.77-5.3,75.96-15.74,27.12-11.7,48.26-30.54,63.77-55.62,6.14-9.92,9.93-20.85,12.6-32.17,1.57-6.65,3.08-13.31,4.88-19.9,1.61-5.87,4.31-11.29,7.77-16.3,5.74-8.32,13.45-13.88,23.18-16.71,10.62-3.09,21.3-3.25,31.95-.52,7.12,1.82,14.21,3.87,21.13,6.34,19.55,6.99,39.01,14.22,58.48,21.44,2.14.79,4.69,1.06,6.02,3.47.26,2.61-1.48,4.36-2.87,6.19-3.39,4.48-7.73,7.95-12.7,10.44-10.83,5.42-22.3,8.09-34.37,5.92-9.82-1.76-19.51-4.21-29.26-6.35-2.2-.48-4.38-1.37-6.77-.66.53,2.43,2.51,2.92,3.98,3.84,10.27,6.38,20.61,12.66,30.88,19.03,2.67,1.66,5.35,3.38,7.74,5.41,2.58,2.19,2.84,5.04.79,7.72-1.25,1.63-2.84,3.13-4.56,4.25-4.69,3.04-9.89,4.86-15.48,5.45-9.47.99-18.92.57-28.31-.81-7.26-1.07-14.47-2.44-22.68-3.84,1.33,1.62,2.02,2.78,3,3.62,4.81,4.08,9.8,7.95,14.52,12.13,2.34,2.07,4.43,4.51,6.28,7.04,2.56,3.5,2.25,5.84-.73,9.14-3.28,3.62-7.45,5.76-12.07,7.13-6.96,2.05-14.06,2.14-21.1.88-5.93-1.06-11.74-2.82-17.6-4.26-1.17-.29-2.36-.53-4.49-1,1.18,2.54,1.97,4.11,2.65,5.72,1.63,3.87,3.28,7.73,4.78,11.65,1.15,3.01.18,5.69-1.84,8.03-2.86,3.31-6.46,5.31-10.76,6.08-5.54.98-11.05.73-16.36-1.04-4.73-1.58-9.32-3.55-13.96-5.37-1.17-.46-2.31-1.01-4.27-1.88.45,2.54.81,4.26,1.05,6,.43,3.11,1.1,6.23,1.12,9.35.06,7.73-2.84,11.12-10.33,12.38-8.88,1.5-17.25-.38-25.29-4.11-2.33-1.08-4.61-2.24-7.54-3.67-.3,1.83-.48,3.02-.7,4.2-.64,3.35-.96,6.8-2.01,10.01-2.6,7.9-8.22,10.82-16.01,8.17-4.2-1.43-8.13-3.65-12.16-5.57-1.4-.67-2.71-1.53-4.73-2.68Z"/>
    <path class="st2" d="M1114.69,1037.26c-1.83,1.66-3.24,3.17-4.88,4.37-2.53,1.85-5.06,3.83-7.87,5.16-6.66,3.15-13.76,1.52-18.48-4.21-2.15-2.6-3.78-5.63-5.95-8.93-1.29.73-2.56,1.44-3.82,2.16-3.63,2.09-7.1,4.58-10.93,6.21-7.47,3.17-12.38,1.44-16.91-5.31-2.09-3.11-3.18-6.61-3.79-10.27-.26-1.53-.34-3.1-.55-5.18-1.73.71-3.18,1.15-4.46,1.87-4.88,2.72-10.09,4.61-15.57,5.36-3.85.53-7.9.66-11.73.11-6.52-.93-9.83-4.42-10.46-10.95-.37-3.86.23-7.83.49-11.75.1-1.5.45-2.98.81-5.24-2.58,1.19-4.46,1.98-6.27,2.91-6.4,3.27-13.2,5.11-20.33,5.83-4.84.49-9.46-.21-13.73-2.54-6.05-3.29-8.03-8.04-5.74-14.46,1.66-4.66,3.78-9.16,5.82-14.05-2.35-1.34-4.21.14-5.91.78-8.76,3.28-17.76,4.59-27.08,4.02-5.62-.35-10.86-1.91-15.69-4.76-3.69-2.18-6.79-4.94-7.98-9.13.43-3.31,2.57-5.39,4.62-7.34,4.57-4.33,9.35-8.44,14.06-12.63,1.7-1.51,3.92-2.49,5.47-5.07-3.04-.84-5.5-.06-7.94.39-10.88,2-21.84,3.1-32.92,2.92-5.53-.09-11.09-.24-16.29-2.36-2.9-1.18-5.76-2.59-8.34-4.33-1.67-1.13-3.01-2.92-4.13-4.65-1.57-2.43-1.26-4.51.94-6.31,2.22-1.82,4.65-3.42,7.1-4.94,9.61-5.95,19.29-11.77,28.87-17.77,2.35-1.47,5.06-2.63,7.09-5.85-9.18,1.82-17.63,3.5-26.08,5.17-2.83.56-5.69,1.03-8.51,1.65-10.63,2.34-20.92.65-31-2.79-6.58-2.25-12.24-6.05-16.71-11.45-1.17-1.41-2.23-2.93-3.15-4.51-.63-1.07-.92-2.34-1.27-3.27,1.6-2.67,4.08-3.06,6.24-3.84,21.22-7.73,42.45-15.44,63.72-23.06,7.67-2.75,15.51-4.92,23.67-5.84,5.01-.56,9.93-.5,14.92.12,19.54,2.43,31.91,13.76,38.71,31.58,2.23,5.85,3.61,12.09,4.78,18.27,5.89,31.05,22.95,54.9,47.49,73.85,19.92,15.38,42.64,24.56,67.21,29.6,16.52,3.39,33.17,5.4,50,6.14,2.62.12,5.29.17,7.84.69,1.4.29,3.29,1.18,3.82,2.33,3.55,7.72,4.78,15.56-.1,23.3-.28.44-.58.88-.91,1.29-6.9,8.32-13.94,9.33-22.48,2.55-2-1.59-3.59-3.69-5.67-5.86Z"/>
    <path class="st2" d="M1191.84,889.06c-24.72-1.61-49.27-14.91-62.75-44.4-16.61-36.33-1.16-75.9,31.57-94.45,38.92-22.06,82.6-5.27,101.71,25.38,19.13,30.69,12.88,74.57-17.63,97.64-13.62,10.3-28.78,16.09-52.89,15.83Z"/>
    <path class="st2" d="M1564.08,922.45c5.4-3.07,10.23-5.18,14.29-8.3,3.91-3,7.35-6.78,10.38-10.69,3.18-4.11,5.64-8.79,8.7-13.66,1.82.47,3.84.86,5.77,1.5,27.92,9.28,55.83,18.59,83.74,27.92,36.63,12.24,73.19,24.66,109.89,36.68,26.21,8.58,52.54,16.84,79.34,23.44,7.13,1.75,14.44,2.75,21.66,4.1,1.49.28,2.96.61,5.14,1.06-.89,1.63-1.35,2.76-2.05,3.72-7.69,10.63-17.42,18.9-29.05,24.94-7.79,4.05-16.05,6.47-24.84,7.04-11.06.72-22.07.13-33.05-1.27-31.77-4.03-62.24-13.03-91.53-25.66-41.49-17.89-82.67-36.53-123.94-54.93-11.27-5.02-22.41-10.33-34.44-15.89Z"/>
    <path class="st2" d="M798.19,889.64c7.74,14.62,17.73,26.09,33,31.79-.32.9-.34,1.55-.61,1.67-31.56,14.38-63.05,28.92-94.74,43.02-24.48,10.89-49.16,21.35-73.84,31.79-21.63,9.15-44.15,15.35-67.25,19.44-15.08,2.67-30.3,3.61-45.57,2.36-18.94-1.55-34.69-9.82-47.55-23.68-3.02-3.25-6.18-6.43-8.23-10.65.74-.55,1.3-1.33,1.93-1.39,17.12-1.62,33.45-6.71,49.91-11.24,31.43-8.65,62.27-19.16,93.15-29.56,51.79-17.43,103.59-34.87,155.39-52.29,1.23-.41,2.5-.72,4.42-1.26Z"/>
    <path class="st2" d="M1095.25,1692.85c11.97,3.39,23.76,6.97,35.67,10.05,11.68,3.01,23.49,5.51,35.79,8.37-1.73,1.97-3.78,2.08-5.62,2.55-7.95,2.03-15.5,5-22.35,9.59-4.94,3.31-8.59,7.56-10.38,13.42-2.25,7.37-.95,14.01,3.41,20.18,3.26,4.62,7.68,7.9,12.57,10.57,6.73,3.68,13.89,6.28,21.33,8.04,16.11,3.79,32.26,7.47,48.39,11.19,13.09,3.02,25.94,6.79,38.06,12.69,11.7,5.69,22.35,12.8,30.51,23.17,13.45,17.08,15.38,35.74,7.56,55.67-2.72,6.92-6.88,12.98-11.77,18.56-5.7,6.51-15.17,14.64-21.86,18.52-8.44-9.06-19.89-13.95-31.12-20.37,1.52-1.1,2.51-1.79,3.47-2.53,4.16-3.2,8.45-6.25,12.4-9.69,2.35-2.05,4.41-4.55,6.17-7.13,6.21-9.06,5.65-17.59-1.51-25.95-3.99-4.66-8.93-8.13-14.33-10.95-8.44-4.41-17.48-7.15-26.64-9.61-21.31-5.72-42.69-11.24-63.85-17.46-9.54-2.8-18.8-6.75-27.88-10.84-5.7-2.57-11.2-5.9-16.19-9.68-21.22-16.1-28.67-37.59-23.28-63.41,2.93-14.03,10.02-25.83,21.45-34.97Z"/>
    <path class="st2" d="M1791.45,1035.18c-1.25,4.81-3.8,8.39-6.92,11.63-10.81,11.21-24.33,16.2-39.58,16.98-19.43,1-38.24-2.72-56.66-8.39-18.38-5.65-36-13.25-52.92-22.41-30.29-16.39-60.25-33.35-89.51-51.54-7.59-4.72-15.36-9.14-23.03-13.73-.84-.5-1.57-1.18-3.05-2.3,15.58-5.36,27.63-13.91,34.27-29.26,1.52.39,3.02.58,4.36,1.14,17.2,7.23,34.49,14.24,51.53,21.83,37.21,16.56,74.19,33.66,111.47,50.06,20.45,8.99,41.48,16.56,62.94,22.88,1.76.52,3.5,1.12,5.22,1.75.47.17.84.6,1.86,1.36Z"/>
    <path class="st2" d="M604.72,1035c2.73-1.01,4.88-1.91,7.09-2.6,35.17-11.01,69.11-25.13,102.59-40.43,35.13-16.05,70.29-32.05,105.47-47.98,6.91-3.13,14.01-5.86,21.48-8.97,1.23,1.91,2.41,3.54,3.39,5.29,4.61,8.22,10.99,14.75,19.11,19.46,3.6,2.09,7.55,3.58,11.71,5.51-.55.61-1.04,1.49-1.79,1.93-16.21,9.75-32.41,19.53-48.7,29.15-23.53,13.9-47.01,27.88-71.43,40.21-21.92,11.06-44.53,20.08-68.74,24.72-11.15,2.14-22.4,3.11-33.73,2.4-12.89-.81-24.77-4.6-34.87-12.96-4.89-4.05-9.26-8.53-11.57-15.74Z"/>
    <path class="st2" d="M1118.71,1817.36c16.38,5.94,33.27,11.59,51.53,15.57-1.37,1.1-2.13,2.02-3.1,2.44-6.12,2.65-11.53,6.27-15.85,11.4-7.17,8.51-7.5,18.46-.81,27.45,4.5,6.05,10.55,10.25,17.31,13.32,5.25,2.38,10.7,4.34,16.14,6.28,10.63,3.8,21.39,7.25,31.94,11.26,6.11,2.32,12.04,5.23,17.84,8.26,6.82,3.57,12.44,8.71,17.56,14.44,8.35,9.35,11.75,20.34,11.04,32.68-.36,6.31-1.52,12.5-3.63,18.5-5.66,16.16-12.69,31.7-21.55,46.36-2.57,4.25-5.75,8.14-8.75,12.12-.54.72-1.56,1.09-3.19,2.18.21-2.69.17-4.43.52-6.08,2.04-9.77,4.18-19.52,6.28-29.27,2-9.28,3.18-18.63,2.69-28.16-.28-5.3-1.31-10.43-3.37-15.31-2.95-7-7.68-12.61-14.3-16.29-4.57-2.54-9.37-4.81-14.3-6.52-12.4-4.31-24.89-8.37-37.43-12.27-9.06-2.82-17.82-6.29-26.32-10.46-9.8-4.8-18.35-11.24-25.38-19.62-10.38-12.38-14.06-26.68-12.43-42.61,1.36-13.35,7.47-24.46,15.7-34.64.3-.37.9-.52,1.86-1.04Z"/>
    <path class="st2" d="M1505.12,973.97c3.47.78,5.93,2.83,8.6,4.43,25.45,15.29,50.78,30.79,76.35,45.88,23.99,14.15,48.18,27.96,73.31,40.02,4.72,2.26,9.5,4.39,14.66,6.76-.56,1.55-.81,3.11-1.61,4.3-7.01,10.37-16.86,16.35-29.13,18.36-19.67,3.23-38.16-1.11-55.84-9.41-13.58-6.38-26.49-14.06-38.51-23.04-23.78-17.78-47.31-35.9-70.94-53.88-2.89-2.2-5.76-4.45-9-6.96,1.46-1.82,3.48-1.29,5-1.87,1.71-.66,3.52-1.1,5.19-1.83,1.68-.73,3.31-1.61,4.86-2.59,1.55-.98,3.01-2.12,4.43-3.28,1.21-1,2.37-2.09,3.44-3.24,1.26-1.34,2.48-2.72,3.58-4.19,1.1-1.47,2.08-3.03,3.01-4.61.91-1.55,1.7-3.17,2.58-4.84Z"/>
    <path class="st2" d="M923.84,999.28c-5.79,4.55-10.3,8.11-14.84,11.65-15.13,11.8-30.17,23.71-45.43,35.33-10.03,7.64-20.29,14.99-30.6,22.24-9.04,6.36-18.78,11.55-28.77,16.31-11.77,5.6-24.08,9.13-37.08,9.92-10.89.66-21.53-.59-31.46-5.56-6.22-3.12-11.46-7.42-15.22-13.35-.8-1.27-1.25-2.77-1.97-4.42,1.46-.84,2.5-1.61,3.66-2.1,24.99-10.58,48.57-23.87,71.86-37.65,29.4-17.4,58.64-35.06,87.95-52.61,2.88-1.72,5.73-3.48,8.93-5.42,6.97,13.39,16.52,22.93,32.98,25.66Z"/>
    <path class="st2" d="M1571.8,1096.78c-5.07,11.56-14.47,16.34-26.18,17.49-6.63.65-13.09-.69-19.44-2.51-8.4-2.4-16.23-6.06-23.62-10.7-10.05-6.32-19.46-13.53-27.97-21.76-17.58-16.99-34.87-34.28-52.27-51.46-.36-.35-.53-.89-1.02-1.76.84-.43,1.63-1.13,2.49-1.24,12-1.54,21.89-6.99,30.02-15.84.86-.94,1.89-1.72,3.11-2.82,1.71.99,3.37,1.73,4.77,2.8,6.27,4.78,12.49,9.64,18.69,14.5,26.48,20.76,52.96,41.54,79.45,62.29,2.07,1.62,4.26,3.08,6.35,4.67,2.08,1.58,4.38,2.97,5.62,6.33Z"/>
    <path class="st2" d="M940.25,1004.73c7.92,13.55,20.03,18.81,34.28,20.03-.14.9-.03,1.57-.31,1.85-11.11,11.19-22.03,22.59-33.47,33.44-12.01,11.39-24.35,22.45-36.89,33.25-8.61,7.41-18.56,12.86-29.19,16.96-7.93,3.05-16.09,4.97-24.66,4.19-8.98-.82-16.81-4.15-22.68-11.25-4.36-5.29-4.12-7.3,1.44-11.6,16.83-13.04,33.81-25.9,50.56-39.04,19.23-15.09,38.28-30.42,57.42-45.63.79-.63,1.72-1.08,3.5-2.18Z"/>
    <path class="st2" d="M1372.45,1043.8c13.14-1.06,24.2-3.89,33.2-12.67,1.6,1.36,3.05,2.4,4.27,3.66,20.48,21.14,40.93,42.3,61.37,63.46,1.64,1.7,3.35,3.37,4.76,5.25,2.64,3.54,2.35,6.69-.86,9.83-3.5,3.42-7.77,5.29-12.65,5.76-6.65.63-13.05-.24-19.34-2.59-11.05-4.13-20.43-10.78-28.76-18.93-11.88-11.62-21.93-24.77-31.46-38.33-3.3-4.69-6.46-9.47-10.53-15.45Z"/>
    <path class="st2" d="M989.03,1031.57c5.68,3.07,10.52,6.34,15.83,8.36,5.28,2.01,11.03,2.75,17.06,4.16-1.02,1.74-1.85,3.32-2.84,4.81-8.75,13.12-17.97,25.91-28.29,37.83-5.48,6.33-11.42,12.35-17.68,17.92-7.53,6.7-16.26,11.57-26.28,13.63-6.53,1.34-13.1,1.64-19.31-1.23-2.56-1.18-5.02-2.89-7.03-4.85-2.83-2.76-2.78-5.24-.49-8.43.76-1.06,1.63-2.06,2.54-3.01,22.19-23.1,44.38-46.19,66.5-69.19Z"/>
    <path class="st2" d="M1218.26,1407.86c.18.68.57,1.43.54,2.17-.75,21.8-1.53,43.6-2.36,65.39-.11,2.84-.58,5.68-.87,8.44-6.18.39-25.7-3.04-35.73-6.21-1.7-2.42-1.71-5.37-1.83-8.21-.87-20.48-1.66-40.97-2.43-61.45-.07-1.77.21-3.56.33-5.3,7.94-.07,36.81,3.47,42.36,5.16Z"/>
    <path class="st2" d="M1328.86,1056.23c3.69,0,7.07.25,10.38-.07,3.63-.34,7.3-.89,10.77-1.94,3.2-.98,6.16-2.75,9.54-4.32,1.49,1.98,3.04,3.73,4.26,5.7,9.26,14.99,19.59,29.22,30.28,43.2,1.59,2.08,3.1,4.27,4.28,6.59,1.92,3.77,1.31,6.31-2.04,9.01-4.28,3.45-9.04,5-14.67,4.03-11.17-1.92-19.96-7.8-27.25-16.1-3.28-3.73-6.45-7.71-8.86-12.02-5.62-10.08-10.76-20.42-16.04-30.69-.44-.87-.4-1.98-.67-3.39Z"/>
    <path class="st2" d="M1068.03,1054.69c-6.75,14.2-12.34,27.5-20.47,39.5-4,5.89-8.55,11.33-14.33,15.6-6.01,4.45-12.55,7.65-20.17,8.1-4.58.27-8.89-.59-12.75-3.21-4.66-3.16-5.24-5.82-2.27-10.55.7-1.11,1.51-2.14,2.31-3.18,11.86-15.42,22.91-31.39,32.87-48.1.66-1.1,1.52-2.09,2.53-3.45,1.51.44,3.06.63,4.36,1.3,8.39,4.3,17.17,6.14,27.9,3.99Z"/>
    <path class="st2" d="M1212.5,1642.95c-10.54-2.4-19.96-4.55-29.55-6.74-.33-1.53-.8-2.77-.85-4.03-.85-19.7-1.67-39.41-2.45-59.12-.06-1.53.19-3.08.3-4.56,5.51-.46,20.24,2.11,34.32,5.9.2.87.65,1.87.61,2.86-.75,21.52-1.55,43.03-2.38,65.69Z"/>
    <path class="st2" d="M1143.16,1930.51c10.54,3.93,20.32,7.58,30.54,11.39-1.17,1.48-2.09,2.7-3.07,3.87-9.55,11.27-13.24,24.33-11.18,38.83,1.18,8.29,3.17,16.47,4.9,24.68,1.56,7.44,3.33,14.84,4.85,22.3.45,2.19.38,4.5.53,6.65-2.14.5-2.98-.68-3.71-1.66-2.82-3.78-5.87-7.44-8.23-11.5-8.31-14.32-15.14-29.38-20.78-44.94-5.91-16.31-3.98-31.99,4.32-47.03.49-.89,1.18-1.67,1.82-2.57Z"/>
    <path class="st2" d="M1080.94,1059.57c9.77,2.59,19.28,3.75,29.52-.09-.2,2.18-.19,3.42-.45,4.6-2.07,9.49-4.43,18.9-8.31,27.86-2.76,6.37-6.72,11.85-11.95,16.41-5.52,4.81-12.02,7.46-19.23,8.24-4.05.44-7.88-.37-10.75-3.63-1.87-2.14-2.64-4.51-1.2-7.23,1.23-2.32,2.29-4.73,3.64-6.97,6.23-10.38,11.33-21.3,15.72-32.57.84-2.15,1.92-4.22,3.01-6.61Z"/>
    <path class="st2" d="M1286.28,1061c9.51,1.43,18.85,2.39,28.08-1.27.79,1.12,1.57,1.86,1.91,2.76,4.59,12.06,10.64,23.41,16.67,34.78,1.47,2.78,2.91,5.6,4,8.54,1.24,3.34.09,6.2-2.71,8.34-3.33,2.55-7.15,3.15-11.2,2.52-8.39-1.3-15.44-5.13-20.74-11.76-2.44-3.05-4.6-6.42-6.36-9.91-5.01-9.91-7.91-20.54-9.89-31.43-.12-.69.13-1.44.25-2.56Z"/>
    <path class="st2" d="M1190.67,1946.47c4.75.85,9,2.88,13.71,4.75.15,2.01.43,4.07.43,6.12-.04,33.4-.76,66.77-3.02,100.1-.71,10.49-1.42,20.97-2.16,31.46-.22,3.11-.34,6.26-2.25,9.66-1.62-3.96-1.83-7.55-2.12-11.12-3.64-44.04-5.15-88.17-5.58-132.35-.03-2.79-.72-5.74.99-8.62Z"/>
    <path class="st2" d="M1247.59,1055.23c7.59,2.8,14.39,6.38,22.32,6.51.52,1.39,1.01,2.56,1.4,3.76,2.83,8.73,5.7,17.45,8.44,26.21,1.01,3.24,2.05,6.55,2.44,9.9.71,6.09-2.31,9.37-8.44,9.76-3.45.22-6.91.01-9.96-1.72-3.4-1.93-6.74-4.02-9.87-6.35-5.39-4.02-8-9.18-7.44-16.28.68-8.62.37-17.31.55-25.98.04-1.74.33-3.47.56-5.81Z"/>
    <path class="st2" d="M1126.23,1061.81c6.87-.39,13.8-2.28,20.28-6.35.55,1.65.94,2.33.98,3.02.56,9.93.92,19.88,1.68,29.79.37,4.85-1.17,8.61-4.49,11.99-4.28,4.36-9.01,8.07-14.9,9.86-2.69.82-5.65,1.17-8.46,1.09-4.13-.12-6.81-2.78-7.11-6.96-.18-2.56.02-5.29.75-7.74,3.32-11.28,6.88-22.5,10.37-33.73.07-.22.35-.38.9-.97Z"/>
    <path class="st2" d="M1211.08,1721.26c-.2,17.66-.11,34.67-1.7,52.05-4.46-.18-8.03-1.85-11.75-2.67-3.8-.84-7.75-1.26-11.68-2.94-.73-17.21-1.45-34.2-2.14-50.57.64-.83.75-1.09.94-1.2.22-.13.52-.22.76-.17,8.18,1.75,16.35,3.51,25.57,5.5Z"/>
    <path class="st2" d="M1188.06,1838.6c7.05.95,13.14,3.22,19.79,4.88.17,15.04-.24,29.68-.26,44.36-5.47-.34-11.13-2.19-17.21-5.48-1.33-5.88-3.04-36.61-2.32-43.76Z"/>
  </g>
  <g>
    <g>
      <path class="st3" d="M2566.12,1255.47v111.3h-35.66v-276.27h87.78c31.61,0,55.26,7.39,70.93,22.14,15.68,14.76,23.52,34.95,23.52,60.55s-8.11,46.05-24.3,60.54c-16.2,14.5-39.58,21.74-70.15,21.74h-52.12ZM2661.93,1211.97c9.54-9.13,14.31-22.07,14.31-38.79s-4.77-30.37-14.31-39.39c-9.54-9.02-25.14-13.52-46.83-13.52h-48.99v105.41h48.99c21.68,0,37.29-4.56,46.83-13.72Z"/>
      <path class="st3" d="M2797.72,1076.78v289.99h-35.66v-289.99h35.66Z"/>
      <path class="st3" d="M3004.05,1164.55c14.5,10.46,24.62,24.44,30.36,41.94v-54.86h35.66v215.14h-35.66v-54.86c-5.75,17.51-15.87,31.49-30.36,41.93-14.51,10.46-32.2,15.68-53.11,15.68-19.07,0-36.05-4.44-50.94-13.32-14.89-8.89-26.58-21.62-35.07-38.22-8.49-16.59-12.73-36.11-12.73-58.59s4.24-42.06,12.73-58.77c8.49-16.72,20.18-29.53,35.07-38.41,14.89-8.88,31.88-13.32,50.94-13.32,20.9,0,38.6,5.23,53.11,15.67ZM2908.43,1201.59c-13.19,13.97-19.79,33.25-19.79,57.8s6.6,43.83,19.79,57.81c13.19,13.97,30.77,20.96,52.71,20.96,14.11,0,26.71-3.27,37.82-9.8,11.1-6.53,19.79-15.74,26.06-27.63,6.27-11.89,9.4-25.66,9.4-41.35s-3.13-29.52-9.4-41.53c-6.27-12.02-14.96-21.23-26.06-27.63-11.11-6.4-23.71-9.6-37.82-9.6-21.94,0-39.52,6.99-52.71,20.96Z"/>
      <path class="st3" d="M3135.13,1072.66c4.43-4.05,10.32-6.07,17.64-6.07s13.18,2.02,17.63,6.07c4.44,4.06,6.67,9.35,6.67,15.88s-2.22,11.82-6.67,15.87c-4.44,4.05-10.32,6.07-17.63,6.07s-13.2-2.02-17.64-6.07c-4.44-4.05-6.67-9.34-6.67-15.87s2.22-11.82,6.67-15.88ZM3170.39,1151.63v215.14h-35.66v-215.14h35.66Z"/>
      <path class="st3" d="M3409.44,1172.2c15.41,16.07,23.13,39.26,23.13,69.56v125.01h-35.67v-121.87c0-21.42-5.48-37.88-16.45-49.37-10.98-11.49-25.87-17.25-44.68-17.25s-35.26,6.34-47.02,19.01c-11.75,12.68-17.64,31.15-17.64,55.46v114.03h-35.66v-215.14h35.66v50.94c5.49-17.5,15.22-30.96,29.2-40.37,13.97-9.4,30.11-14.1,48.4-14.1,25.08,0,45.32,8.03,60.74,24.09Z"/>
      <path class="st3" d="M3621.25,1167.89c14.75,12.67,23.71,29.72,26.84,51.14h-34.09c-1.57-12.8-6.86-23.32-15.88-31.55-9.01-8.23-21.09-12.34-36.25-12.34-12.8,0-22.79,3.07-29.97,9.21-7.19,6.14-10.78,14.44-10.78,24.88,0,7.83,2.42,14.17,7.25,19,4.84,4.84,10.84,8.49,18.03,10.97,7.18,2.49,17.04,5.16,29.58,8.04,15.94,3.66,28.8,7.39,38.6,11.17,9.8,3.79,18.16,9.86,25.08,18.22,6.92,8.36,10.39,19.6,10.39,33.7,0,17.51-6.61,31.75-19.79,42.72-13.2,10.97-30.77,16.46-52.71,16.46-25.61,0-46.51-6.14-62.7-18.42-16.19-12.28-25.73-29.4-28.61-51.34h34.49c1.3,13.06,6.98,23.65,17.04,31.74,10.05,8.11,23.31,12.16,39.78,12.16,12.27,0,21.87-3.14,28.8-9.41,6.91-6.27,10.38-14.5,10.38-24.69,0-8.35-2.48-15.02-7.45-19.99-4.96-4.96-11.1-8.75-18.42-11.37-7.32-2.61-17.38-5.35-30.18-8.23-15.94-3.65-28.67-7.32-38.21-10.97-9.54-3.66-17.64-9.47-24.29-17.44-6.67-7.97-9.99-18.74-9.99-32.33,0-18.03,6.66-32.59,19.99-43.7,13.32-11.11,31.47-16.66,54.47-16.66,24.29,0,43.82,6.34,58.59,19.01Z"/>
      <path class="st3" d="M3956.89,1366.77l-72.11-112.86h-38.8v112.86h-35.66v-276.27h90.92c31.35,0,54.86,7.51,70.54,22.53,15.68,15.03,23.51,34.95,23.51,59.76,0,22.47-6.27,40.56-18.8,54.27-12.54,13.72-30.71,22.28-54.48,25.67l75.25,114.03h-40.37ZM3845.99,1228.04h52.12c40.5,0,60.75-17.75,60.75-53.29s-20.25-53.29-60.75-53.29h-52.12v106.59Z"/>
      <path class="st3" d="M4199.66,1162.2c16.32,8.89,29.13,21.69,38.4,38.41,9.27,16.72,13.91,36.31,13.91,58.77s-4.64,42-13.91,58.59c-9.27,16.6-22.08,29.33-38.4,38.22-16.33,8.88-34.82,13.32-55.45,13.32s-39.13-4.44-55.46-13.32c-16.33-8.89-29.19-21.62-38.6-38.22-9.4-16.59-14.1-36.11-14.1-58.59s4.7-42.06,14.1-58.77c9.41-16.72,22.27-29.53,38.6-38.41,16.32-8.88,34.81-13.32,55.46-13.32s39.11,4.44,55.45,13.32ZM4108.75,1188.86c-10.84,5.75-19.59,14.57-26.26,26.45-6.66,11.89-9.99,26.58-9.99,44.08s3.34,31.82,9.99,43.7c6.67,11.89,15.41,20.71,26.26,26.45,10.84,5.75,22.66,8.62,35.47,8.62s24.62-2.87,35.46-8.62c10.84-5.75,19.59-14.57,26.26-26.45,6.67-11.88,9.99-26.45,9.99-43.7s-3.33-32.19-9.99-44.08c-6.67-11.89-15.41-20.71-26.26-26.45-10.84-5.75-22.66-8.62-35.46-8.62s-24.63,2.87-35.47,8.62Z"/>
      <path class="st3" d="M4447.71,1164.55c14.5,10.46,24.62,24.44,30.36,41.94v-54.86h35.66v215.14h-35.66v-54.86c-5.75,17.51-15.87,31.49-30.36,41.93-14.51,10.46-32.2,15.68-53.11,15.68-19.07,0-36.05-4.44-50.94-13.32-14.89-8.89-26.58-21.62-35.07-38.22-8.49-16.59-12.73-36.11-12.73-58.59s4.24-42.06,12.73-58.77c8.49-16.72,20.18-29.53,35.07-38.41,14.89-8.88,31.88-13.32,50.94-13.32,20.9,0,38.6,5.23,53.11,15.67ZM4352.09,1201.59c-13.19,13.97-19.79,33.25-19.79,57.8s6.6,43.83,19.79,57.81c13.19,13.97,30.77,20.96,52.71,20.96,14.11,0,26.71-3.27,37.82-9.8,11.1-6.53,19.79-15.74,26.06-27.63,6.27-11.89,9.4-25.66,9.4-41.35s-3.13-29.52-9.4-41.53c-6.27-12.02-14.96-21.23-26.06-27.63-11.11-6.4-23.71-9.6-37.82-9.6-21.94,0-39.52,6.99-52.71,20.96Z"/>
      <path class="st3" d="M4719.68,1164.55c14.5,10.46,24.62,24.44,30.36,41.94v-129.71h35.66v289.99h-35.66v-54.86c-5.75,17.51-15.87,31.49-30.36,41.93-14.51,10.46-32.2,15.68-53.11,15.68-19.07,0-36.05-4.44-50.94-13.32-14.89-8.89-26.58-21.62-35.07-38.22-8.49-16.59-12.73-36.11-12.73-58.59s4.24-42.06,12.73-58.77c8.49-16.72,20.18-29.53,35.07-38.41,14.89-8.88,31.88-13.32,50.94-13.32,20.9,0,38.6,5.23,53.11,15.67ZM4624.06,1201.59c-13.19,13.97-19.79,33.25-19.79,57.8s6.6,43.83,19.79,57.81c13.19,13.97,30.77,20.96,52.71,20.96,14.11,0,26.71-3.27,37.82-9.8,11.1-6.53,19.79-15.74,26.06-27.63,6.27-11.89,9.4-25.66,9.4-41.35s-3.13-29.52-9.4-41.53c-6.27-12.02-14.96-21.23-26.06-27.63-11.11-6.4-23.71-9.6-37.82-9.6-21.94,0-39.52,6.99-52.71,20.96Z"/>
      <path class="st3" d="M5294.76,1090.49l-70.15,276.27h-43.5l-63.87-225.73-63.88,225.73h-43.5l-70.54-276.27h39.58l52.9,234.73,65.45-234.73h39.58l65.44,233.95,53.3-233.95h39.18Z"/>
      <path class="st3" d="M5540.85,1266.84h-172.04c.79,24.56,7.77,42.98,20.97,55.26,13.18,12.28,29.32,18.42,48.4,18.42,17.24,0,31.67-4.37,43.3-13.12,11.62-8.75,18.74-20.44,21.36-35.07h38.01c-2.62,14.89-8.42,28.21-17.44,39.97-9.01,11.75-20.71,20.9-35.07,27.43-14.37,6.53-30.56,9.8-48.58,9.8-20.65,0-38.94-4.44-54.86-13.32-15.94-8.89-28.42-21.62-37.43-38.22-9.02-16.59-13.52-36.11-13.52-58.59s4.5-42.06,13.52-58.77c9.01-16.72,21.49-29.53,37.43-38.41,15.93-8.88,34.22-13.32,54.86-13.32s39.11,4.44,54.67,13.32c15.53,8.89,27.43,20.78,35.66,35.67,8.23,14.89,12.34,31.35,12.34,49.37,0,7.58-.52,14.11-1.57,19.59ZM5498.53,1209.62c-6.01-10.7-14.24-18.67-24.69-23.91-10.45-5.21-21.81-7.83-34.09-7.83-19.6,0-36.06,6.07-49.38,18.22-13.32,12.15-20.51,29.98-21.56,53.49h137.55c.78-15.93-1.83-29.26-7.84-39.97Z"/>
      <path class="st3" d="M5722.88,1167.89c14.75,12.67,23.71,29.72,26.84,51.14h-34.09c-1.57-12.8-6.86-23.32-15.88-31.55-9.01-8.23-21.09-12.34-36.25-12.34-12.8,0-22.79,3.07-29.97,9.21-7.19,6.14-10.78,14.44-10.78,24.88,0,7.83,2.42,14.17,7.25,19,4.84,4.84,10.84,8.49,18.03,10.97,7.18,2.49,17.04,5.16,29.58,8.04,15.94,3.66,28.8,7.39,38.6,11.17,9.8,3.79,18.16,9.86,25.08,18.22,6.92,8.36,10.39,19.6,10.39,33.7,0,17.51-6.61,31.75-19.79,42.72-13.2,10.97-30.77,16.46-52.71,16.46-25.61,0-46.51-6.14-62.7-18.42-16.19-12.28-25.73-29.4-28.61-51.34h34.49c1.3,13.06,6.98,23.65,17.04,31.74,10.05,8.11,23.31,12.16,39.78,12.16,12.27,0,21.87-3.14,28.8-9.41,6.91-6.27,10.38-14.5,10.38-24.69,0-8.35-2.48-15.02-7.45-19.99-4.96-4.96-11.1-8.75-18.42-11.37-7.32-2.61-17.38-5.35-30.18-8.23-15.94-3.65-28.67-7.32-38.21-10.97-9.54-3.66-17.64-9.47-24.29-17.44-6.67-7.97-9.99-18.74-9.99-32.33,0-18.03,6.66-32.59,19.99-43.7,13.32-11.11,31.47-16.66,54.47-16.66,24.29,0,43.82,6.34,58.59,19.01Z"/>
      <path class="st3" d="M5910,1335.42v31.35h-26.65c-21.94,0-38.34-5.22-49.19-15.67-10.84-10.45-16.25-27.96-16.25-52.51v-116h-32.14v-30.96h32.14v-53.69h36.05v53.69h55.64v30.96h-55.64v116.78c0,13.85,2.54,23.31,7.63,28.41,5.1,5.1,13.91,7.64,26.45,7.64h21.95Z"/>
      <path class="st3" d="M2807.13,1565.45v271.57h-35.67v-216.71l-86.6,216.71h-31.75l-87-215.93v215.93h-35.66v-271.57h42.72l96.4,228.08,94.84-228.08h42.72Z"/>
      <path class="st3" d="M3068.5,1737.09h-172.04c.79,24.56,7.77,42.98,20.97,55.26,13.18,12.28,29.32,18.42,48.4,18.42,17.24,0,31.67-4.37,43.3-13.12,11.62-8.75,18.74-20.44,21.36-35.07h38.01c-2.62,14.89-8.42,28.21-17.44,39.97-9.01,11.75-20.71,20.9-35.07,27.43-14.37,6.53-30.56,9.8-48.58,9.8-20.65,0-38.94-4.44-54.86-13.32-15.94-8.89-28.42-21.62-37.43-38.22-9.02-16.59-13.52-36.11-13.52-58.59s4.5-42.06,13.52-58.77c9.01-16.72,21.49-29.53,37.43-38.41,15.93-8.88,34.22-13.32,54.86-13.32s39.11,4.44,54.67,13.32c15.53,8.89,27.43,20.78,35.66,35.67,8.23,14.89,12.34,31.35,12.34,49.37,0,7.58-.52,14.11-1.57,19.59ZM3026.18,1679.87c-6.01-10.7-14.24-18.67-24.69-23.91-10.45-5.21-21.81-7.83-34.09-7.83-19.6,0-36.06,6.07-49.38,18.22-13.32,12.15-20.51,29.98-21.56,53.49h137.55c.78-15.93-1.83-29.26-7.84-39.97Z"/>
      <path class="st3" d="M3265.82,1634.81c14.5,10.46,24.62,24.44,30.36,41.94v-129.71h35.66v289.99h-35.66v-54.86c-5.75,17.51-15.87,31.49-30.36,41.93-14.51,10.46-32.2,15.68-53.11,15.68-19.07,0-36.05-4.44-50.94-13.32-14.89-8.89-26.58-21.62-35.07-38.22-8.49-16.59-12.73-36.11-12.73-58.59s4.24-42.06,12.73-58.77c8.49-16.72,20.18-29.53,35.07-38.41,14.89-8.88,31.88-13.32,50.94-13.32,20.9,0,38.6,5.23,53.11,15.67ZM3170.19,1671.85c-13.19,13.97-19.79,33.25-19.79,57.8s6.6,43.83,19.79,57.81c13.19,13.97,30.77,20.96,52.71,20.96,14.11,0,26.71-3.27,37.82-9.8,11.1-6.53,19.79-15.74,26.06-27.63,6.27-11.89,9.4-25.66,9.4-41.35s-3.13-29.52-9.4-41.53c-6.27-12.02-14.96-21.23-26.06-27.63-11.11-6.4-23.71-9.6-37.82-9.6-21.94,0-39.52,6.99-52.71,20.96Z"/>
      <path class="st3" d="M3396.9,1542.91c4.43-4.05,10.32-6.07,17.64-6.07s13.18,2.02,17.63,6.07c4.44,4.06,6.67,9.35,6.67,15.88s-2.22,11.82-6.67,15.87c-4.44,4.05-10.32,6.07-17.63,6.07s-13.2-2.02-17.64-6.07c-4.44-4.05-6.67-9.34-6.67-15.87s2.22-11.82,6.67-15.88ZM3432.16,1621.88v215.14h-35.66v-215.14h35.66Z"/>
      <path class="st3" d="M3660.63,1641.08c18.02,14.63,29.12,34.24,33.31,58.78h-37.62c-2.62-15.41-9.74-27.49-21.36-36.25-11.62-8.75-26.06-13.12-43.3-13.12-12.54,0-23.97,2.87-34.28,8.62-10.33,5.75-18.61,14.57-24.88,26.45-6.27,11.89-9.41,26.58-9.41,44.08s3.14,32.2,9.41,44.09c6.27,11.89,14.56,20.71,24.88,26.45,10.32,5.75,21.74,8.62,34.28,8.62,17.24,0,31.68-4.44,43.3-13.33,11.62-8.88,18.74-21.02,21.36-36.44h37.62c-4.19,24.82-15.29,44.48-33.31,58.97-18.03,14.51-40.76,21.75-68.18,21.75-20.65,0-38.94-4.44-54.86-13.32-15.94-8.89-28.42-21.62-37.43-38.22-9.02-16.59-13.52-36.11-13.52-58.59s4.5-42.06,13.52-58.77c9.01-16.72,21.49-29.53,37.43-38.41,15.93-8.88,34.22-13.32,54.86-13.32,27.42,0,50.15,7.32,68.18,21.94Z"/>
      <path class="st3" d="M3889.69,1634.81c14.5,10.46,24.62,24.44,30.36,41.94v-54.86h35.66v215.14h-35.66v-54.86c-5.75,17.51-15.87,31.49-30.36,41.93-14.51,10.46-32.2,15.68-53.11,15.68-19.07,0-36.05-4.44-50.94-13.32-14.89-8.89-26.58-21.62-35.07-38.22-8.49-16.59-12.73-36.11-12.73-58.59s4.24-42.06,12.73-58.77c8.49-16.72,20.18-29.53,35.07-38.41,14.89-8.88,31.88-13.32,50.94-13.32,20.9,0,38.6,5.23,53.11,15.67ZM3794.06,1671.85c-13.19,13.97-19.79,33.25-19.79,57.8s6.6,43.83,19.79,57.81c13.19,13.97,30.77,20.96,52.71,20.96,14.11,0,26.71-3.27,37.82-9.8,11.1-6.53,19.79-15.74,26.06-27.63,6.27-11.89,9.4-25.66,9.4-41.35s-3.13-29.52-9.4-41.53c-6.27-12.02-14.96-21.23-26.06-27.63-11.11-6.4-23.71-9.6-37.82-9.6-21.94,0-39.52,6.99-52.71,20.96Z"/>
      <path class="st3" d="M4056.02,1547.03v289.99h-35.66v-289.99h35.66Z"/>
      <path class="st3" d="M4431.45,1582.89c21.94,16.6,37.09,39.26,45.45,68h-37.62c-7.05-18.29-18.42-32.85-34.09-43.7-15.68-10.84-34.88-16.26-57.61-16.26-18.02,0-34.16,4.37-48.4,13.12-14.24,8.76-25.48,21.3-33.7,37.62-8.23,16.33-12.34,35.46-12.34,57.41s4.12,40.62,12.34,56.82c8.23,16.2,19.46,28.68,33.7,37.43,14.24,8.76,30.37,13.13,48.4,13.13,22.73,0,41.93-5.42,57.61-16.26,15.67-10.84,27.04-25.41,34.09-43.7h37.62c-8.36,28.74-23.51,51.4-45.45,67.99-21.95,16.6-49.77,24.88-83.47,24.88-25.86,0-48.73-5.93-68.58-17.83-19.86-11.88-35.34-28.47-46.44-49.77-11.11-21.29-16.65-45.51-16.65-72.69s5.54-51.86,16.65-73.28c11.1-21.42,26.58-38.08,46.44-49.97,19.85-11.89,42.72-17.83,68.58-17.83,33.7,0,61.52,8.29,83.47,24.88Z"/>
      <path class="st3" d="M4568.21,1547.03v289.99h-35.66v-289.99h35.66Z"/>
      <path class="st3" d="M4633.66,1542.91c4.43-4.05,10.32-6.07,17.64-6.07s13.18,2.02,17.63,6.07c4.44,4.06,6.67,9.35,6.67,15.88s-2.22,11.82-6.67,15.87c-4.44,4.05-10.32,6.07-17.63,6.07s-13.2-2.02-17.64-6.07c-4.44-4.05-6.67-9.34-6.67-15.87s2.22-11.82,6.67-15.88ZM4668.92,1621.88v215.14h-35.66v-215.14h35.66Z"/>
      <path class="st3" d="M4907.96,1642.45c15.41,16.07,23.13,39.26,23.13,69.56v125.01h-35.67v-121.87c0-21.42-5.48-37.88-16.45-49.37-10.98-11.49-25.87-17.25-44.68-17.25s-35.26,6.34-47.02,19.01c-11.75,12.68-17.64,31.15-17.64,55.46v114.03h-35.66v-215.14h35.66v50.94c5.49-17.5,15.22-30.96,29.2-40.37,13.97-9.4,30.11-14.1,48.4-14.1,25.08,0,45.32,8.03,60.74,24.09Z"/>
      <path class="st3" d="M4994.18,1542.91c4.43-4.05,10.32-6.07,17.64-6.07s13.18,2.02,17.63,6.07c4.44,4.06,6.67,9.35,6.67,15.88s-2.22,11.82-6.67,15.87c-4.44,4.05-10.32,6.07-17.63,6.07s-13.2-2.02-17.64-6.07c-4.44-4.05-6.67-9.34-6.67-15.87s2.22-11.82,6.67-15.88ZM5029.44,1621.88v215.14h-35.66v-215.14h35.66Z"/>
      <path class="st3" d="M5257.91,1641.08c18.02,14.63,29.12,34.24,33.31,58.78h-37.62c-2.62-15.41-9.74-27.49-21.36-36.25-11.62-8.75-26.06-13.12-43.3-13.12-12.54,0-23.97,2.87-34.28,8.62-10.33,5.75-18.61,14.57-24.88,26.45-6.27,11.89-9.41,26.58-9.41,44.08s3.14,32.2,9.41,44.09c6.27,11.89,14.56,20.71,24.88,26.45,10.32,5.75,21.74,8.62,34.28,8.62,17.24,0,31.68-4.44,43.3-13.33,11.62-8.88,18.74-21.02,21.36-36.44h37.62c-4.19,24.82-15.29,44.48-33.31,58.97-18.03,14.51-40.76,21.75-68.18,21.75-20.65,0-38.94-4.44-54.86-13.32-15.94-8.89-28.42-21.62-37.43-38.22-9.02-16.59-13.52-36.11-13.52-58.59s4.5-42.06,13.52-58.77c9.01-16.72,21.49-29.53,37.43-38.41,15.93-8.88,34.22-13.32,54.86-13.32,27.42,0,50.15,7.32,68.18,21.94Z"/>
    </g>
    <g>
      <path class="st0" d="M2775.56,783.69v3.16h-247.58v-3.16c26.9-8.44,44.69-20.04,53.38-34.81,8.71-15.29,12.92-39.68,12.66-73.16v-337.74c0-32.7-4.23-56.68-12.66-71.98-8.69-14.76-26.48-26.37-53.38-34.81v-3.16h251.53c132.34,0,198.54,49.7,198.54,149.1,0,23.73-3.71,45.02-11.08,63.87-7.39,18.85-17.4,34.4-30.06,46.67-12.66,12.25-27.83,22.42-45.48,30.45-17.68,8.05-36.32,13.78-55.97,17.2-19.63,3.43-40.66,5.14-63.08,5.14h-75.13v135.25c0,32.43,5.39,56.42,16.21,71.98,10.8,15.57,31.5,27.56,62.09,36ZM2697.26,255.7v257.46h38.75c50.08,0,86.09-12.65,107.97-37.97,21.88-25.57,32.82-56.41,32.82-92.54s-9.22-66.97-27.69-90.97c-18.45-23.99-47.85-35.99-88.18-35.99h-63.67Z"/>
      <path class="st0" d="M3585.11,783.69v3.16h-61.3c-35.35,0-60.12-1.58-74.36-4.75-14.5-3.16-26.37-9.22-35.59-18.19-9.76-9.49-23.09-27.29-39.95-53.4l-113.5-174.8h-41.93v140c0,33.22,4.23,57.61,12.66,73.16,8.71,15.03,26.23,26.64,52.59,34.81v3.16h-234.52v-3.16c26.9-8.44,44.69-20.04,53.4-34.81,8.69-15.29,12.92-39.68,12.66-73.16v-337.74c0-32.7-4.23-56.68-12.66-71.98-8.71-14.76-26.5-26.37-53.4-34.81v-3.16h245.21c138.15,0,207.23,48.64,207.23,145.93,0,37.71-14.5,68.42-43.51,92.15-28.74,23.73-63,40.73-102.82,51.02l130.9,181.53c24.53,33.49,42.05,54.71,52.61,63.68,11.06,9.49,26.48,16.61,46.27,21.36ZM3218.48,255.7v255.09h32.03c45.34,0,81.15-11.08,107.38-33.22,26.23-22.15,39.36-54.84,39.36-98.09,0-33.74-9.84-62.81-29.47-87.2-19.65-24.38-45.96-36.59-78.9-36.59h-70.41Z"/>
      <path class="st0" d="M3543.95,231.18v-3.16h222.65v3.16c-15.03,5.28-25.97,12.26-32.82,20.96-6.85,8.7-10.15,21.88-9.87,39.55,0,18.19,10.01,66.04,30.04,143.56l74.36,290.68,83.44-282.38c17.42-57.47,26.11-99.66,26.11-126.55,0-23.99-4.03-42.31-12.07-54.97-8.04-12.65-23.01-22.94-44.89-30.85v-3.16h204.88v3.16c-16.89,5.54-28.36,12.93-34.42,22.15-6.06,9.23-9.08,22.94-9.08,41.13,0,19.26,6.71,53.26,20.16,102.04l88.2,318.37,86.6-272.1c19.51-60.91,29.27-104.14,29.27-129.71,0-22.94-3.83-40.41-11.47-52.41-7.64-12-21.88-21.81-42.7-29.47v-3.16h190.23v3.16c-15.56,7.12-28.48,16.09-38.77,26.9-22.67,23.73-51.27,86.88-85.81,189.44l-115.1,339.33h-87.39l-110.34-393.51-121.42,393.51h-96.5l-96.1-342.5c-20.84-76.45-38.63-128.66-53.4-156.61-14.22-27.68-32.15-46.53-53.78-56.55Z"/>
      <path class="st0" d="M5165.02,784.48v2.37h-226.21v-3.16c22.4-9.5,37.9-19.98,46.47-31.45,8.55-11.47,12.86-28.8,12.86-52.01s-.79-44.82-2.39-67.24l-20.56-321.53-202.49,475.38h-41.12l-187.86-479.33h-2.39l-21.35,316.39c-1.58,22.15-2.37,44.83-2.37,68.03,0,24.79,4.74,44.23,14.24,58.33,9.48,14.12,25.83,25.25,49.04,33.43v3.16h-176.78v-3.16c27.95-8.97,46.13-23.73,54.57-44.3,7.92-19.25,14.1-57.74,18.58-115.48l18.6-248.36c2.09-32.43,3.16-55.9,3.16-70.4,0-18.99-4.96-33.88-14.83-44.69-9.89-10.81-24.59-20.57-44.1-29.27v-3.16h178.75l168.48,429.9,182.33-429.9h166.09v3.16c-21.35,8.97-36.58,19.26-45.68,30.85-9.08,11.6-13.63,28.35-13.63,50.23,0,20.04.79,40.87,2.37,62.49l17,249.94c4.48,60.12,10.15,98.88,17,116.27,7.11,17.4,24.51,31.91,52.2,43.51Z"/>
    </g>
  </g>
</svg>