<svg xmlns="http://www.w3.org/2000/svg" xmlns:xlink="http://www.w3.org/1999/xlink" version="1.1" width="256" height="256" viewBox="0 0 256 256" xml:space="preserve">
<g style="stroke: none; stroke-width: 0; stroke-dasharray: none; stroke-linecap: butt; stroke-linejoin: miter; stroke-miterlimit: 10; fill: none; fill-rule: nonzero; opacity: 1;" transform="translate(1.4065934065934016 1.4065934065934016) scale(2.81 2.81)">
	<path d="M 4.201 37.208 v 31.844 h 11.478 l 8.897 -28.723 C 17.667 38.735 10.845 37.538 4.201 37.208 z" style="stroke: none; stroke-width: 1; stroke-dasharray: none; stroke-linecap: butt; stroke-linejoin: miter; stroke-miterlimit: 10; fill: rgb(82,143,216); fill-rule: nonzero; opacity: 1;" transform=" matrix(1 0 0 1 0 0) " stroke-linecap="round"/>
	<path d="M 85.799 37.208 v 31.844 H 74.321 l -8.897 -28.723 C 72.333 38.735 79.155 37.538 85.799 37.208 z" style="stroke: none; stroke-width: 1; stroke-dasharray: none; stroke-linecap: butt; stroke-linejoin: miter; stroke-miterlimit: 10; fill: rgb(82,143,216); fill-rule: nonzero; opacity: 1;" transform=" matrix(1 0 0 1 0 0) " stroke-linecap="round"/>
	<path d="M 49.898 57.28 c 6.313 4.889 12.082 10.573 17.324 17.028 c 1.451 1.469 1.436 3.857 -0.033 5.308 l 0 0 c -1.469 1.451 -4.086 1.222 -5.537 -0.247 l -0.23 -0.256 c 1.451 1.469 1.436 3.857 -0.033 5.308 l 0 0 c -1.469 1.451 -3.857 1.436 -5.308 -0.033 l -2.253 -2.281 c 1.451 1.469 1.436 3.857 -0.033 5.308 l 0 0 c -1.469 1.451 -3.857 1.436 -5.308 -0.033 l -0.747 -0.756 c -7.37 5.825 -19.273 -6.684 -31.128 -20.592 l 6.812 -21.992 h 11.863 L 49.898 57.28 z" style="stroke: none; stroke-width: 1; stroke-dasharray: none; stroke-linecap: butt; stroke-linejoin: miter; stroke-miterlimit: 10; fill: rgb(255,206,191); fill-rule: nonzero; opacity: 1;" transform=" matrix(1 0 0 1 0 0) " stroke-linecap="round"/>
	<path d="M 65.424 71.957 l 8.332 -4.729 l -6.972 -22.51 c -5.618 -2.57 -14.667 -4.238 -22.851 -3.923 c -7.851 0 -19.357 13.617 -17.647 18.847 c 2.833 2.245 7.217 2.552 12.863 -3.455 c 1.911 0.188 4.821 -1.081 6.346 -2.128 l 4.403 3.22 l 0 0 L 65.424 71.957 z" style="stroke: none; stroke-width: 1; stroke-dasharray: none; stroke-linecap: butt; stroke-linejoin: miter; stroke-miterlimit: 10; fill: rgb(254,177,159); fill-rule: nonzero; opacity: 1;" transform=" matrix(1 0 0 1 0 0) " stroke-linecap="round"/>
	<path d="M 43.529 89.604 c -7.95 0 -18.197 -11.104 -28.17 -22.806 c -0.358 -0.42 -0.308 -1.051 0.113 -1.409 c 0.419 -0.36 1.051 -0.309 1.41 0.112 C 27.908 78.44 40.256 91.783 47.169 86.315 c 0.435 -0.343 1.062 -0.269 1.404 0.164 c 0.343 0.434 0.27 1.062 -0.164 1.404 C 46.912 89.067 45.275 89.604 43.529 89.604 z" style="stroke: none; stroke-width: 1; stroke-dasharray: none; stroke-linecap: butt; stroke-linejoin: miter; stroke-miterlimit: 10; fill: rgb(0,0,0); fill-rule: nonzero; opacity: 1;" transform=" matrix(1 0 0 1 0 0) " stroke-linecap="round"/>
	<path d="M 51.268 90 c -0.011 0 -0.021 0 -0.031 0 c -1.29 -0.009 -2.497 -0.516 -3.398 -1.428 L 35.215 75.794 c -0.388 -0.394 -0.384 -1.026 0.009 -1.414 c 0.393 -0.39 1.025 -0.384 1.414 0.008 l 12.622 12.778 c 0.526 0.533 1.232 0.829 1.988 0.834 c 0.006 0 0.012 0 0.019 0 c 0.749 0 1.451 -0.287 1.979 -0.81 c 0.533 -0.525 0.829 -1.231 0.833 -1.987 c 0.005 -0.756 -0.282 -1.466 -0.809 -1.998 l -10.33 -10.457 c -0.388 -0.394 -0.384 -1.026 0.009 -1.414 c 0.392 -0.39 1.026 -0.384 1.414 0.008 l 10.33 10.457 c 0.902 0.913 1.395 2.126 1.387 3.416 c -0.008 1.291 -0.515 2.498 -1.427 3.399 C 53.747 89.509 52.546 90 51.268 90 z" style="stroke: none; stroke-width: 1; stroke-dasharray: none; stroke-linecap: butt; stroke-linejoin: miter; stroke-miterlimit: 10; fill: rgb(0,0,0); fill-rule: nonzero; opacity: 1;" transform=" matrix(1 0 0 1 0 0) " stroke-linecap="round"/>
	<path d="M 58.993 86.953 c -0.011 0 -0.021 0 -0.03 0 c -1.291 -0.008 -2.498 -0.515 -3.399 -1.427 l -2.293 -2.321 c -0.388 -0.394 -0.384 -1.026 0.009 -1.415 c 0.394 -0.388 1.025 -0.383 1.415 0.009 l 2.293 2.321 c 0.525 0.533 1.231 0.829 1.987 0.833 c 0.006 0 0.012 0 0.019 0 c 0.749 0 1.451 -0.286 1.979 -0.809 c 1.105 -1.092 1.117 -2.88 0.024 -3.985 l -10.33 -10.458 c -0.389 -0.394 -0.385 -1.026 0.008 -1.414 c 0.394 -0.39 1.026 -0.383 1.414 0.008 L 62.42 78.753 c 1.867 1.891 1.849 4.947 -0.041 6.814 C 61.473 86.462 60.271 86.953 58.993 86.953 z" style="stroke: none; stroke-width: 1; stroke-dasharray: none; stroke-linecap: butt; stroke-linejoin: miter; stroke-miterlimit: 10; fill: rgb(0,0,0); fill-rule: nonzero; opacity: 1;" transform=" matrix(1 0 0 1 0 0) " stroke-linecap="round"/>
	<path d="M 30.33 62.171 c -1.648 0 -3.199 -0.583 -4.665 -1.744 c -0.204 -0.162 -0.337 -0.396 -0.371 -0.654 c -0.447 -3.429 1.691 -8.31 5.581 -12.74 c 4.157 -4.734 9.031 -7.561 13.04 -7.561 c 8.119 -0.312 17.642 1.327 23.664 4.082 c 0.502 0.229 0.723 0.823 0.493 1.325 c -0.229 0.502 -0.82 0.726 -1.325 0.493 c -5.764 -2.637 -14.927 -4.205 -22.794 -3.901 c -3.429 0.001 -7.85 2.637 -11.576 6.881 c -3.308 3.768 -5.282 7.928 -5.136 10.76 c 2.126 1.526 5.335 2.249 11.199 -3.63 c 0.212 -0.213 0.509 -0.314 0.806 -0.289 c 1.476 0.144 4.056 -0.929 5.691 -2.05 c 0.456 -0.314 1.077 -0.197 1.391 0.259 c 0.312 0.455 0.196 1.077 -0.259 1.39 c -1.27 0.871 -4.16 2.412 -6.528 2.415 C 36.154 60.521 33.104 62.17 30.33 62.171 z" style="stroke: none; stroke-width: 1; stroke-dasharray: none; stroke-linecap: butt; stroke-linejoin: miter; stroke-miterlimit: 10; fill: rgb(0,0,0); fill-rule: nonzero; opacity: 1;" transform=" matrix(1 0 0 1 0 0) " stroke-linecap="round"/>
	<path d="M 65.013 81.963 c -0.105 0 -0.212 -0.003 -0.319 -0.009 c -1.312 -0.077 -2.574 -0.637 -3.463 -1.535 c -0.388 -0.394 -0.384 -1.026 0.009 -1.415 c 0.394 -0.388 1.025 -0.383 1.415 0.009 c 0.544 0.552 1.33 0.896 2.156 0.944 c 0.809 0.045 1.555 -0.201 2.062 -0.701 c 1.105 -1.092 1.116 -2.881 0.024 -3.987 c -5.349 -6.579 -11.224 -12.354 -17.525 -17.235 c -0.437 -0.339 -0.517 -0.967 -0.179 -1.403 c 0.339 -0.437 0.966 -0.515 1.403 -0.179 c 6.423 4.976 12.408 10.858 17.789 17.484 c 1.802 1.819 1.783 4.877 -0.106 6.743 C 67.433 81.513 66.283 81.963 65.013 81.963 z" style="stroke: none; stroke-width: 1; stroke-dasharray: none; stroke-linecap: butt; stroke-linejoin: miter; stroke-miterlimit: 10; fill: rgb(0,0,0); fill-rule: nonzero; opacity: 1;" transform=" matrix(1 0 0 1 0 0) " stroke-linecap="round"/>
	<path d="M 28.324 44.774 H 23.05 c -0.552 0 -1 -0.448 -1 -1 c 0 -0.552 0.448 -1 1 -1 h 5.274 c 0.552 0 1 0.448 1 1 C 29.324 44.327 28.877 44.774 28.324 44.774 z" style="stroke: none; stroke-width: 1; stroke-dasharray: none; stroke-linecap: butt; stroke-linejoin: miter; stroke-miterlimit: 10; fill: rgb(0,0,0); fill-rule: nonzero; opacity: 1;" transform=" matrix(1 0 0 1 0 0) " stroke-linecap="round"/>
	<path d="M 70.062 70.918 c -0.338 0 -0.667 -0.171 -0.855 -0.48 c -0.287 -0.472 -0.138 -1.087 0.335 -1.374 l 4.195 -2.554 c 0.473 -0.287 1.088 -0.137 1.374 0.335 c 0.287 0.472 0.138 1.087 -0.335 1.374 l -4.195 2.554 C 70.419 70.871 70.239 70.918 70.062 70.918 z" style="stroke: none; stroke-width: 1; stroke-dasharray: none; stroke-linecap: butt; stroke-linejoin: miter; stroke-miterlimit: 10; fill: rgb(0,0,0); fill-rule: nonzero; opacity: 1;" transform=" matrix(1 0 0 1 0 0) " stroke-linecap="round"/>
	<path d="M 15.169 70.22 H 3.491 c -0.552 0 -1 -0.447 -1 -1 V 36.822 c 0 -0.274 0.112 -0.536 0.311 -0.725 C 3 35.909 3.265 35.808 3.54 35.823 c 6.116 0.303 12.759 1.319 20.906 3.199 c 0.271 0.063 0.503 0.235 0.642 0.476 c 0.139 0.241 0.171 0.529 0.088 0.794 l -9.052 29.223 C 15.994 69.935 15.607 70.22 15.169 70.22 z M 4.491 68.22 h 9.941 l 8.515 -27.488 c -7.093 -1.597 -13.013 -2.512 -18.455 -2.853 V 68.22 z" style="stroke: none; stroke-width: 1; stroke-dasharray: none; stroke-linecap: butt; stroke-linejoin: miter; stroke-miterlimit: 10; fill: rgb(0,0,0); fill-rule: nonzero; opacity: 1;" transform=" matrix(1 0 0 1 0 0) " stroke-linecap="round"/>
	<path d="M 86.509 70.22 H 74.832 c -0.438 0 -0.825 -0.285 -0.955 -0.704 l -9.052 -29.223 c -0.082 -0.266 -0.051 -0.553 0.088 -0.794 c 0.139 -0.241 0.371 -0.414 0.643 -0.476 c 8.146 -1.88 14.789 -2.896 20.904 -3.199 c 0.276 -0.013 0.541 0.085 0.739 0.274 c 0.198 0.189 0.311 0.451 0.311 0.725 V 69.22 C 87.509 69.773 87.062 70.22 86.509 70.22 z M 75.569 68.22 h 9.94 V 37.879 c -5.441 0.341 -11.361 1.256 -18.455 2.853 L 75.569 68.22 z" style="stroke: none; stroke-width: 1; stroke-dasharray: none; stroke-linecap: butt; stroke-linejoin: miter; stroke-miterlimit: 10; fill: rgb(0,0,0); fill-rule: nonzero; opacity: 1;" transform=" matrix(1 0 0 1 0 0) " stroke-linecap="round"/>
	<path d="M 21.123 0.816 c -1.32 -1.492 -3.821 -1.677 -5.758 0.228 c -1.937 -1.905 -4.437 -1.72 -5.758 -0.228 c -1.405 1.587 -0.815 4.548 1.034 6.915 c 0.937 1.2 3.253 3.153 4.723 3.974 c 1.471 -0.82 3.786 -2.774 4.723 -3.974 C 21.938 5.364 22.528 2.403 21.123 0.816 z" style="stroke: none; stroke-width: 1; stroke-dasharray: none; stroke-linecap: butt; stroke-linejoin: miter; stroke-miterlimit: 10; fill: rgb(241,121,118); fill-rule: nonzero; opacity: 1;" transform=" matrix(2.8008 0 0 2.8008 1.9639999999999986 1.9639999999999702) " stroke-linecap="round"/>
	<path d="M 15.366 12.062 c -0.06 0 -0.12 -0.015 -0.174 -0.045 c -1.507 -0.841 -3.855 -2.817 -4.831 -4.066 C 8.311 5.327 7.882 2.227 9.34 0.579 c 0.696 -0.787 1.674 -1.24 2.754 -1.278 c 1.148 -0.042 2.301 0.404 3.271 1.255 c 0.97 -0.851 2.12 -1.293 3.271 -1.255 c 1.08 0.037 2.058 0.491 2.754 1.278 c 1.458 1.647 1.03 4.748 -1.02 7.372 c -0.976 1.249 -3.324 3.225 -4.831 4.066 C 15.486 12.047 15.426 12.062 15.366 12.062 z M 12.236 0.013 c -0.039 0 -0.078 0.001 -0.118 0.002 c -0.882 0.03 -1.679 0.399 -2.244 1.037 c -1.23 1.39 -0.789 4.106 1.049 6.459 c 0.877 1.122 3.019 2.939 4.442 3.782 c 1.423 -0.842 3.565 -2.659 4.442 -3.782 c 1.838 -2.352 2.279 -5.069 1.048 -6.459 v 0 c -0.565 -0.638 -1.362 -1.007 -2.244 -1.037 c -1.054 -0.037 -2.117 0.419 -2.996 1.283 c -0.139 0.137 -0.362 0.137 -0.501 0 C 14.27 0.467 13.251 0.013 12.236 0.013 z" style="stroke: none; stroke-width: 1; stroke-dasharray: none; stroke-linecap: butt; stroke-linejoin: miter; stroke-miterlimit: 10; fill: rgb(0,0,0); fill-rule: nonzero; opacity: 1;" transform=" matrix(2.8008 0 0 2.8008 1.9639999999999986 1.9639999999999702) " stroke-linecap="round"/>
</g>
</svg>